<?xml version="1.0" encoding="utf-8"?>
<!-- Generator: Adobe Illustrator 24.3.0, SVG Export Plug-In . SVG Version: 6.00 Build 0)  -->
<svg version="1.1" id="레이어_1" xmlns="http://www.w3.org/2000/svg" xmlns:xlink="http://www.w3.org/1999/xlink" x="0px"
	 y="0px" viewBox="0 0 260.34 74.11" style="enable-background:new 0 0 260.34 74.11;" xml:space="preserve">
<style type="text/css">
	.st0{fill:#231F20;}
	.st1{font-family:'ArialMT';}
	.st2{font-size:65px;}
	.st3{letter-spacing:2.22;}
	.st4{font-size:15px;}
</style>
<path class="st0" d="M16.58,37.46h-2.31v2.93h2.31V37.46z M6.44,59.66c3.35,4.43,9.23,3.42,9.23,3.42c0.72-6.26-1.82-8.29-1.82-8.29
	c-1.57,3.32,0.8,7.34,0.8,7.34C11.08,58.82,6.44,59.66,6.44,59.66 M12.55,25.32l-1.12-1.05c-2.72,0.69-4.7,3.1-4.7,3.1
	c1.28-3.06,0.59-5.91,0.02-7.43l-0.82-0.67c-2.36,4.48,0.25,9.39,0.25,9.39C9.81,27.78,11.65,26.34,12.55,25.32 M20.15,66.16
	c-0.12-1.94-0.47-3.36-0.91-4.49l-2.24,0c0.6,2.13,1.98,3.73,1.98,3.73c-4.1-2.64-8.52-1-8.52-1
	C14.53,68.17,20.15,66.16,20.15,66.16 M28.41,39.97v1.13H27.2v1.32h1.07v1.13H27.2v1.36h1.23v1.12H26v-6.05l-1.67,6.05h-0.98
	l-1.75-6.06h1.28l0.72,2.91c0.11,0.35,0.15,0.69,0.22,1.04h0.01c0.07-0.36,0.09-0.7,0.19-1.05l0.73-2.89H28.41z M29.92,53.41h-1.28
	l-0.22-1.02H27.2l-0.22,1.02h-1.19l1.41-6.06h1.26L29.92,53.41z M28.65,39.97h1.21c0.76,0,2.13,0.08,2.13,1.74
	c0,0.67-0.26,1.23-0.86,1.57l1.05,2.76h-1.26l-1.05-2.79h-0.02v2.79h-1.2V39.97z M32.42,39.97h1.2v6.06h-1.2V39.97z M31.53,53.5
	c-0.34,0-0.76-0.1-1.03-0.3v-1.14c0.28,0.19,0.56,0.33,0.91,0.33c0.39,0,0.69-0.26,0.69-0.66c0-0.46-0.37-0.64-0.71-0.88
	c-0.69-0.47-1.12-0.92-1.12-1.8c0-0.96,0.55-1.79,1.58-1.79c0.38,0,0.73,0.1,1.06,0.3v1.16c-0.24-0.21-0.54-0.39-0.86-0.39
	c-0.38,0-0.61,0.23-0.61,0.6c0,0.99,1.83,1.05,1.83,2.69C33.28,52.69,32.66,53.5,31.53,53.5 M25.58,48.48h-0.95v4.93h-1.2v-4.93
	h-0.94v-1.13h3.09V48.48z M19.6,32.98v25.49h12.63c1.43,0.04,2.9,1.16,2.9,1.16V39.24c-7.65-0.17-9.19-6.26-9.19-6.26H19.6z
	 M48.92,19.8l-3.79,4.12l0.04,6.58c0,0-0.12,1.08-0.35,1.62h2.43l6.95-6.95L48.92,19.8z M16.66,51.32h-2.31v2.94h2.31V51.32z
	 M20.44,22.86l4.87,4.79v-3.71l-4.87-4.87V22.86z M16.61,63.89c0.3,0,0.55-0.25,0.55-0.55c0-0.3-0.25-0.55-0.55-0.55
	c-0.3,0-0.55,0.25-0.55,0.55C16.06,63.65,16.31,63.89,16.61,63.89 M7.79,24.67c0,0.3,0.25,0.55,0.55,0.55c0.3,0,0.55-0.25,0.55-0.55
	c0-0.3-0.25-0.55-0.55-0.55C8.04,24.12,7.79,24.37,7.79,24.67 M16.64,59.87c0.02,0.25,0.07-0.05,0.07-0.05v-3.58l-0.59,0.65
	C16.45,57.8,16.57,59.1,16.64,59.87 M25.32,29.48v-0.75l-3.59-3.6H13.3l4.75,4.35H25.32z M7.05,19.25c0,0-0.32-1.96,1.73-4.9H1.87
	C1.87,14.36,2.16,15.16,7.05,19.25 M1.06,30.04c-1.24,5.41,3.32,9.27,3.32,9.27c5.25-3.48,5.17-6.72,5.17-6.72
	C6,33.52,4.46,37.92,4.46,37.92C4.69,33.06,1.06,30.04,1.06,30.04 M5.13,32.55c1.07-4.75-1.98-8.35-1.98-8.35
	c-2.15,5.11,1.67,9.7,1.67,9.7c5.77-2.51,6.26-5.72,6.26-5.72C7.42,28.48,5.13,32.55,5.13,32.55 M5.61,34.81
	c0-0.3-0.25-0.55-0.55-0.55c-0.3,0-0.55,0.25-0.55,0.55c0,0.3,0.24,0.55,0.55,0.55C5.37,35.36,5.61,35.12,5.61,34.81 M33.77,62.68
	h3.62c0,0,0.24-1.58,1.27-1.58h15.05V34.63l-1.5-1.58v26.24H38.74c0,0-1.81,0.16-3.23,1.89c0,0-1.11-1.66-3.47-1.81H18.88V33.29
	l-1.61,1.61v26.2h14.7C31.96,61.11,33.77,61.19,33.77,62.68 M10.2,14.03c-3.77,4.06-1.76,9.69-1.76,9.69
	c6.29-0.38,7.84-3.23,7.84-3.23c-3.54-0.98-7.08,2.07-7.08,2.07C11.83,18.45,10.2,14.03,10.2,14.03 M27.93,49.83l-0.14-0.92h-0.01
	l-0.13,0.92l-0.26,1.61h0.84L27.93,49.83z M62.7,61.22c0.92-0.57,1.79-1.34,2.51-2.4c0,0-1.99-0.26-4.32,0.53L62.7,61.22z
	 M66.53,37.2c0,0-1.65-4.37-5.22-5.21c0,0,0,3.24,5.33,6.6c0,0,4.46-3.97,3.1-9.35C69.74,29.24,66.19,32.34,66.53,37.2 M59.83,50.23
	c0,0-2.08,2.49-0.15,8.48c0,0,5.97-0.17,8.38-5.16c0,0-4.71,0.08-7.57,4.03C60.49,57.57,62.03,53.17,59.83,50.23 M66.38,42.61
	c0,0-0.86-4.59-4.23-6.03c0,0-0.57,3.2,4.1,7.42c0,0,5.09-3.13,4.68-8.66C70.93,35.33,66.89,37.76,66.38,42.61 M62.18,41.23
	c0,0-1.11,3.05,2.75,8.03c0,0,5.56-2.2,6.11-7.72c0,0-4.4,1.69-5.74,6.38C65.31,47.92,65.25,43.25,62.18,41.23 M65.71,45.33
	c0.31,0,0.55-0.25,0.55-0.55c0-0.31-0.24-0.55-0.55-0.55c-0.3,0-0.55,0.25-0.55,0.55C65.17,45.08,65.41,45.33,65.71,45.33
	 M62.49,54.75c0-0.3-0.24-0.55-0.55-0.55c-0.3,0-0.55,0.25-0.55,0.55c0,0.31,0.25,0.55,0.55,0.55
	C62.25,55.3,62.49,55.05,62.49,54.75 M15.97,21.96L15.97,21.96c-0.21,0.17-1.75,1.57-4.07,1.85l0.8,0.74l8.34-0.04l-2.59-2.59h0
	l-1.31-1.31C17.12,20.62,16.2,21.8,15.97,21.96 M48.21,48.95H48.2l-0.13,0.91l-0.26,1.62h0.84l-0.3-1.62L48.21,48.95z M30.82,41.72
	c0-0.44-0.21-0.79-0.81-0.76h-0.16v1.62l0.21,0.01C30.61,42.58,30.82,42.21,30.82,41.72 M42.66,45.08c0.58,0,0.58-0.44,0.59-0.89
	v-4.18h1.2v4.42c0,0.64-0.07,1.73-1.8,1.73c-1.12,0-1.78-0.52-1.78-1.66v-4.5h1.2v3.92C42.06,44.39,42.01,45.08,42.66,45.08
	 M45.74,47.39v1.13h-1.21v1.31h1.07v1.13h-1.07v1.36h1.22v1.13h-2.42v-6.06H45.74z M45.41,40.01h1.35l0.35,0.84
	c0.1,0.3,0.23,0.61,0.29,0.93h0.02c0.06-0.32,0.16-0.62,0.27-0.93l0.36-0.84h1.3l-1.3,2.93l1.39,3.13h-1.39l-0.38-0.96
	c-0.11-0.31-0.19-0.61-0.26-0.91h-0.02c-0.09,0.3-0.16,0.6-0.26,0.91l-0.36,0.96h-1.35l1.28-3.13L45.41,40.01z M49.06,53.45
	l-0.23-1.03h-1.22l-0.22,1.03h-1.18l1.4-6.06h1.26l1.46,6.06H49.06z M41.39,53.45l-0.29-4.37h-0.02l-0.2,1.5l-0.51,2.87h-0.93
	l-0.59-2.9l-0.2-1.35v-0.11h-0.01l-0.18,4.37h-1.28l0.53-6.06h1.58l0.58,3.58h0.02l0.48-3.58h1.6l0.64,6.06H41.39z M37.51,40.01h1.2
	v4.94h1.25v1.12h-2.45V40.01z M35.98,39.08v20.55c0,0,1.16-1.16,2.78-1.16H51.5V32.98h-6.88C44.62,32.98,42.68,38.99,35.98,39.08
	 M19.69,18.4c0,0-0.54,0.79-2.61,1.23l2.61,2.41V18.4z M30.64,15.99v-2.7h8.43v3.86h2.77v2.78h-2.69v1.24h2.69v3.01h-2.69v9.04
	h-2.32l-3.21-3.21l-2.93,2.94l-2.13-2.12l4.87-4.87l2.51,2.51V15.99H30.64z M26.31,28.94c0,6.41,4.02,9.38,8.98,9.38
	c4.96,0,8.98-2.96,8.98-9.38V10.66H26.32C26.32,10.66,26.31,22.54,26.31,28.94 M18.65,30.16l2.14,1.9h4.84
	c-0.23-0.39-0.15-1.86-0.15-1.86L18.65,30.16z M57.56,54.32c0,0-0.39,0.41-0.52,1.04l1.16,1.2C58.14,55.81,57.95,55.05,57.56,54.32
	 M11.81,59.27c1.79-6.04-0.36-8.48-0.36-8.48c-2.12,3-0.48,7.36-0.48,7.36c-2.94-3.87-7.66-3.85-7.66-3.85
	C5.84,59.23,11.81,59.27,11.81,59.27 M11.51,19.25c6.26,0.72,8.29-1.82,8.29-1.82c-3.32-1.57-7.33,0.81-7.33,0.81
	c3.3-3.58,2.45-8.22,2.45-8.22C10.51,13.36,11.51,19.25,11.51,19.25 M24.62,63.51c0.3,3.67,4.37,5.95,4.37,5.95
	c-4.76-1.08-8.36,1.98-8.36,1.98c5.11,2.16,9.71-1.66,9.71-1.66C27.82,64,24.62,63.51,24.62,63.51 M8.67,54.85
	c2.81-5.64,1.13-8.41,1.13-8.41c-2.62,2.58-1.75,7.16-1.75,7.16c-2.23-4.33-6.89-5.12-6.89-5.12C2.79,53.78,8.67,54.85,8.67,54.85
	 M21.3,61.68l-0.79,0c-0.04,3.46,3.29,6.19,3.29,6.19c-4.49-1.88-8.57,0.49-8.57,0.49c4.66,3.02,9.84,0.05,9.84,0.05
	C24.07,64.2,22.3,62.4,21.3,61.68 M9.7,64.3c0,0,0.86-0.52,2.11-0.7l-1.39-0.33l-0.13,0.18c0.08-0.11,0.13-0.18,0.13-0.18L4.3,69.71
	c0,0-0.69,1.01-0.03,1.67c0,0,0.61,0.5,1.46-0.08l5.96-5.21C11.08,65.77,9.77,64.68,9.7,64.3 M6.33,49.94
	c3.75-5.07,2.57-8.09,2.57-8.09c-3.02,2.09-2.97,6.76-2.97,6.76c-1.45-4.66-5.89-6.24-5.89-6.24C0.73,47.87,6.33,49.94,6.33,49.94
	 M9.48,13.71L2.24,6.46c0,0-3.03,2.17-0.68,7.24H9.48z M12.75,11.07L8.5,6.77c-2.64-2.64-5.77-0.9-5.77-0.9l8.39,8.36
	C11.68,12.09,12.75,11.07,12.75,11.07 M4.91,45.48c0,0.3,0.25,0.55,0.54,0.55c0.3,0,0.55-0.25,0.55-0.55c0-0.31-0.25-0.55-0.55-0.55
	C5.15,44.93,4.91,45.17,4.91,45.48 M4.89,44.71c4.57-4.34,3.93-7.52,3.93-7.52c-3.34,1.53-4.1,6.13-4.1,6.13
	c-0.62-4.83-4.71-7.17-4.71-7.17C-0.27,41.7,4.89,44.71,4.89,44.71 M8.9,55.37c0,0.31,0.25,0.55,0.55,0.55
	c0.3,0,0.55-0.25,0.55-0.55c0-0.3-0.25-0.54-0.55-0.54C9.15,54.83,8.9,55.07,8.9,55.37 M54.98,63.42c0.3,0,0.54-0.25,0.54-0.56
	c0-0.3-0.24-0.54-0.54-0.54c-0.31,0-0.55,0.25-0.55,0.54C54.43,63.17,54.67,63.42,54.98,63.42 M57.9,62.7l-1.94-1.58
	c0.04,0.49,0.11,1.01,0.2,1.57C56.16,62.69,56.86,62.77,57.9,62.7 M63.32,52.96c0,0,0.75-4.6-1.92-7.12c0,0-1.63,2.81,1.31,8.38
	c0,0,5.85-1.21,7.36-6.55C70.08,47.67,65.45,48.58,63.32,52.96 M26.6,68.32c0-0.3-0.25-0.55-0.55-0.55c-0.3,0-0.55,0.25-0.55,0.55
	c0,0.31,0.25,0.55,0.55,0.55C26.35,68.87,26.6,68.63,26.6,68.32 M52.66,65c0,0,1.19-1.43,1.78-3.44l-2.24-0.04
	c-0.35,1.1-0.62,2.5-0.69,4.27c0,0,4.84,1.61,8.71-1.19l-1.49-1.2C57.07,63.3,54.81,63.55,52.66,65 M54.29,56.08v2.93l13.13,10.9
	h2.63L56.67,56.08H54.29z M35.05,68.74v1.37c-0.63-1-3.11-4.62-5.9-4.8c0,0,0.95,3.24,5.14,5.15c0,0-14.56-9.07-16.7-6.19
	c0,0,13.88,9.82,17.47,6.26v2.23h1.39v-2.39v-1.63H35.05z M37.37,70.44c4.17-1.93,5.09-5.17,5.09-5.17c-3.24,0.23-6.02,5.1-6.02,5.1
	c3.63,3.71-0.97-6.17-0.97-6.17C33.31,61.35,37.37,70.44,37.37,70.44 M42.75,69.3c0,0,4.02-2.38,4.22-6.04c0,0-3.19,0.56-5.57,6.39
	c0,0,4.68,3.7,9.74,1.43C51.15,71.08,47.48,68.12,42.75,69.3 M47.89,67.59c0,0,3.12-2.68,3.14-6.03l-1.11,0.05
	c-1.01,0.88-2.48,2.76-3.3,6.55c0,0,5.25,2.84,9.84-0.28C56.47,67.88,52.34,65.59,47.89,67.59 M45.13,68.11
	c0,0.3,0.24,0.55,0.55,0.55c0.3,0,0.54-0.25,0.54-0.55c0-0.3-0.24-0.55-0.54-0.55C45.38,67.56,45.13,67.81,45.13,68.11 M64.59,27.97
	c0,0,2.84-5.26-0.28-9.85c0,0-2.28,4.13-0.3,8.58c0,0-3.04-3.54-6.69-3.11C57.33,23.59,58.43,26.64,64.59,27.97 M51.23,15.68
	l1.67-1.73c-1.42-0.33-4.08-0.8-6.24,0.8C46.66,14.76,47.76,16.02,51.23,15.68 M62.32,24.59c0.31,0,0.55-0.24,0.55-0.55
	c0-0.3-0.24-0.55-0.55-0.55c-0.3,0-0.55,0.25-0.55,0.55C61.77,24.35,62.02,24.59,62.32,24.59 M66.08,33.19c0,0,3.71-4.69,1.43-9.75
	c0,0-2.97,3.67-1.78,8.4c0,0-2.38-4.01-6.05-4.22C59.68,27.61,60.25,30.81,66.08,33.19 M58.06,6.8c1.74,0.87,3.14-0.04,3.14-0.04
	c1.93-0.95,3.33,0.37,3.33,0.37c1.35,1.05,1.13,2.44,1.13,2.44c0,1.06-0.31,1.14-0.31,1.14c-0.64,0.44-0.48-0.31-0.48-0.31
	c0.02-0.01,0.15-0.53,0.15-0.53c0.25-2.39-1.9-2.74-1.9-2.74c-2.28-0.4-2.85,1.71-2.85,1.71c-0.15,0.58-0.15,1.09-0.09,1.55
	l-2.85-2.85l0.13,2.41l6.37,6.38h2.28l-2.32-2.32c1.22,0.38,2.29,0.43,2.29,0.43c3.25-0.2,3.6-3.31,3.6-3.31
	c0.86-3.26-2.22-5.88-2.22-5.88c-2.06-1.77-5.17-1.91-5.17-1.91C57.87,2.83,56.29,0,56.29,0c-0.52,1.29-0.38,3.19-0.38,3.19
	C56.21,6.12,58.06,6.8,58.06,6.8 M65.3,34.09c0,0.3,0.24,0.55,0.54,0.55c0.31,0,0.56-0.25,0.56-0.55c0-0.31-0.24-0.56-0.56-0.56
	C65.54,33.53,65.3,33.78,65.3,34.09 M53.22,13.53l1.34-1.36c-0.56-1.93-1.73-4.25-4.59-5.64C49.97,6.53,49.86,10.65,53.22,13.53
	 M56.6,51.6h-2.32v2.93h2.32V51.6z M58.41,22.51c1.02,0.29,2.28,0.51,3.82,0.57c0,0,0.7-2.08,0.39-4.6L60.6,20.4
	c0.22,0.51,0.49,1.02,0.83,1.53c0,0-0.55-0.46-1.44-0.95L58.41,22.51z M14.38,16.25c0,0.3,0.25,0.55,0.55,0.55
	c0.31,0,0.55-0.25,0.55-0.55c0-0.31-0.25-0.55-0.55-0.55C14.62,15.7,14.38,15.94,14.38,16.25 M62.86,16.91l-5.95-5.95l-5.33,5.79
	l5.72,5.64L62.86,16.91z M50.23,17.1l-1.2,1.43l6.49,6.49l1.31-1.32L50.23,17.1z M56.48,37.23h-2.31v2.94h2.31V37.23z M28.72,9.2
	c0,0,1.82,1.21,5.03-1C33.75,8.19,29.78,6.57,28.72,9.2 M49.39,11.28c0,0-1.8-0.55-4.08,0.23l-0.01,2.08
	c1.39-0.03,2.79-0.36,5.34-1.71c0,0-1.2-5.85-6.54-7.36C44.1,4.52,45.01,9.15,49.39,11.28 M25.47,13.86l0.04-2.02
	c-2.25-0.66-4.52-0.23-4.52-0.23c4.33-2.23,5.12-6.88,5.12-6.88c-5.31,1.63-6.37,7.51-6.37,7.51
	C22.19,13.46,24.09,13.83,25.47,13.86 M23.8,15.03c-2.99-2.13-7.36-0.48-7.36-0.48c3.88-2.95,3.85-7.67,3.85-7.67
	c-4.94,2.53-4.96,8.5-4.96,8.5C21.36,17.17,23.8,15.03,23.8,15.03 M23.46,10.6c0,0.3,0.25,0.55,0.55,0.55
	c0.31,0,0.55-0.25,0.55-0.55c0-0.31-0.25-0.55-0.55-0.55C23.7,10.05,23.46,10.29,23.46,10.6 M24.79,10.01l4.16-0.06
	c-1.29-0.77-2.71-0.75-2.71-0.75c4.65-1.45,5.98-5.59,5.98-5.59c-5.5,0.69-7.57,6.29-7.57,6.29C24.72,9.96,24.72,9.96,24.79,10.01
	 M46.97,10.3c0-0.3-0.24-0.55-0.55-0.55c-0.3,0-0.55,0.25-0.55,0.55c0,0.3,0.25,0.55,0.55,0.55C46.73,10.85,46.97,10.6,46.97,10.3
	 M44.06,9.21c0,0-1.41-0.03-2.7,0.75l4.15,0.06c0.07-0.05,0.07-0.05,0.15-0.11c0,0-2.07-5.61-7.58-6.29
	C38.08,3.62,39.41,7.76,44.06,9.21 M35.12,8.57c0.41,0,0.74-0.33,0.74-0.74c0-0.4-0.33-0.74-0.74-0.74c-0.41,0-0.74,0.33-0.74,0.74
	C34.38,8.24,34.72,8.57,35.12,8.57 M41.58,8.95c-1.16-2.59-5.06-0.81-5.06-0.81C39.8,10.23,41.58,8.95,41.58,8.95"/>
<text transform="matrix(0.9 0 0 1 81.6865 50.4634)" class="st0 st1 st2 st3">DSAIL</text>
<text transform="matrix(0.88 0 0 1.1111 83.6865 68.0884)" class="st0 st1 st4">Data Science &amp; AI Laboratory</text>
</svg>
