<?xml version="1.0" encoding="utf-8"?>
<!-- Generator: Adobe Illustrator 24.3.0, SVG Export Plug-In . SVG Version: 6.00 Build 0)  -->
<svg version="1.1" id="레이어_1" xmlns="http://www.w3.org/2000/svg" xmlns:xlink="http://www.w3.org/1999/xlink" x="0px"
	 y="0px" viewBox="0 0 1001.94 661.07" style="enable-background:new 0 0 1001.94 661.07;" xml:space="preserve">
<style type="text/css">
	.st0{fill:none;stroke:#000000;stroke-width:1.209;stroke-linejoin:round;stroke-miterlimit:10;}
	.st1{fill:none;stroke:#C55A11;stroke-width:1.511;stroke-linecap:round;stroke-linejoin:round;stroke-miterlimit:10;}
	.st2{fill:none;stroke:#C55A11;stroke-width:5.15;stroke-linejoin:round;stroke-miterlimit:10;}
	
		.st3{clip-path:url(#SVGID_2_);fill:none;stroke:#2E75B6;stroke-width:1.36;stroke-linecap:round;stroke-linejoin:round;stroke-miterlimit:10;}
	.st4{fill:none;stroke:#2E75B6;stroke-width:5.15;stroke-linejoin:round;stroke-miterlimit:10;}
	.st5{font-family:'ArialMT';}
	.st6{font-size:14.496px;}
	.st7{font-size:14.52px;}
	.st8{fill:none;stroke:#000000;stroke-width:1.16;stroke-linejoin:round;stroke-miterlimit:10;}
	.st9{fill:none;stroke:#2E75B6;stroke-width:1.242;stroke-linecap:round;stroke-linejoin:round;stroke-miterlimit:10;}
	.st10{fill:none;stroke:#2E75B6;stroke-width:4.702;stroke-linejoin:round;stroke-miterlimit:10;}
	.st11{fill:none;stroke:#C55A11;stroke-width:1.242;stroke-linecap:round;stroke-linejoin:round;stroke-miterlimit:10;}
	.st12{fill:none;stroke:#C55A11;stroke-width:4.702;stroke-linejoin:round;stroke-miterlimit:10;}
	.st13{font-size:14.0144px;}
	.st14{font-size:13.9199px;}
	.st15{font-size:13.9439px;}
	.st16{font-size:19px;}
	.st17{font-size:14px;}
	.st18{font-family:'Arial-ItalicMT';}
	.st19{font-size:16px;}
	.st20{font-size:13px;}
	.st21{font-family:'TimesNewRomanPSMT';}
	.st22{font-size:24px;}
	.st23{fill:none;stroke:#2E75B6;stroke-width:1.36;stroke-linecap:round;stroke-linejoin:round;stroke-miterlimit:10;}
	.st24{fill:none;stroke:#000000;stroke-width:0.3;stroke-miterlimit:10;}
	.st25{fill:none;stroke:#000000;stroke-width:0.3;stroke-miterlimit:10;stroke-dasharray:2.943,2.943;}
	.st26{fill:none;stroke:#000000;stroke-width:0.3;stroke-miterlimit:10;stroke-dasharray:2.895,2.895;}
	.st27{fill:none;stroke:#000000;stroke-width:1.104;stroke-linejoin:round;stroke-miterlimit:10;}
	
		.st28{clip-path:url(#SVGID_4_);fill:none;stroke:#C55A11;stroke-width:1.242;stroke-linecap:round;stroke-linejoin:round;stroke-miterlimit:10;}
	
		.st29{clip-path:url(#SVGID_6_);fill:none;stroke:#2E75B6;stroke-width:1.242;stroke-linecap:round;stroke-linejoin:round;stroke-miterlimit:10;}
	.st30{font-size:13.2855px;}
</style>
<line class="st0" x1="93.82" y1="234.5" x2="93.82" y2="10.27"/>
<path class="st0" d="M93.82,10.27h4.38 M93.82,85h4.38 M93.82,159.78h4.38 M93.82,234.5h4.38 M93.82,10.27h3.26 M93.82,47.64h3.26
	 M93.82,85h3.26 M93.82,122.35h3.26 M93.82,159.78h3.26 M93.82,197.13h3.26 M93.82,234.5h3.26"/>
<line class="st0" x1="93.82" y1="234.5" x2="483.83" y2="234.5"/>
<path class="st0" d="M483.83,230.12v4.38 M418.83,230.12v4.38 M353.84,230.12v4.38 M288.85,230.12v4.38 M223.79,230.12v4.38
	 M158.81,230.12v4.38 M93.82,230.12v4.38"/>
<polyline class="st1" points="93.82,58.12 158.81,58.59 223.79,112.56 288.85,137.29 353.84,175.23 418.83,165.14 483.83,178.23 "/>
<rect x="92.33" y="56.59" class="st2" width="2.97" height="2.97"/>
<rect x="157.32" y="57.1" class="st2" width="2.97" height="2.97"/>
<rect x="222.31" y="111.06" class="st2" width="2.97" height="2.97"/>
<rect x="397.31" y="36.06" class="st2" width="2.97" height="2.97"/>
<rect x="287.3" y="135.8" class="st2" width="2.97" height="2.97"/>
<rect x="352.28" y="173.73" class="st2" width="2.97" height="2.97"/>
<rect x="417.27" y="163.65" class="st2" width="2.97" height="2.97"/>
<rect x="482.33" y="176.71" class="st2" width="2.97" height="2.97"/>
<g>
	<defs>
		<rect id="SVGID_1_" x="93.82" y="10.22" width="390.44" height="224.7"/>
	</defs>
	<clipPath id="SVGID_2_">
		<use xlink:href="#SVGID_1_"  style="overflow:visible;"/>
	</clipPath>
	<polyline class="st3" points="93.82,88.33 158.81,76.86 223.79,158.4 288.85,162.24 353.84,200.73 418.83,194.66 483.83,197.93 	
		"/>
</g>
<path class="st4" d="M95.3,88.26c0,0.82-0.66,1.49-1.48,1.49s-1.49-0.67-1.49-1.49c0-0.82,0.67-1.49,1.49-1.49
	S95.3,87.44,95.3,88.26z"/>
<path class="st4" d="M160.29,76.8c0,0.82-0.66,1.49-1.48,1.49c-0.83,0-1.49-0.67-1.49-1.49c0-0.82,0.66-1.49,1.49-1.49
	C159.63,75.31,160.29,75.98,160.29,76.8z"/>
<path class="st4" d="M225.28,158.4c0,0.82-0.66,1.48-1.49,1.48c-0.82,0-1.48-0.66-1.48-1.48c0-0.82,0.66-1.49,1.48-1.49
	C224.62,156.91,225.28,157.58,225.28,158.4z"/>
<path class="st4" d="M400.78,56.9c0,0.82-0.66,1.48-1.49,1.48c-0.82,0-1.48-0.66-1.48-1.48c0-0.82,0.66-1.49,1.48-1.49
	C400.12,55.41,400.78,56.08,400.78,56.9z"/>
<path class="st4" d="M290.27,162.24c0,0.82-0.67,1.49-1.49,1.49s-1.48-0.67-1.48-1.49c0-0.82,0.66-1.49,1.48-1.49
	S290.27,161.42,290.27,162.24z"/>
<path class="st4" d="M355.26,200.68c0,0.82-0.67,1.49-1.49,1.49s-1.49-0.67-1.49-1.49c0-0.82,0.67-1.48,1.49-1.48
	S355.26,199.86,355.26,200.68z"/>
<path class="st4" d="M420.25,194.66c0,0.82-0.67,1.49-1.49,1.49s-1.49-0.67-1.49-1.49s0.67-1.48,1.49-1.48
	S420.25,193.84,420.25,194.66z"/>
<path class="st4" d="M485.31,197.93c0,0.82-0.67,1.48-1.49,1.48s-1.49-0.66-1.49-1.48c0-0.82,0.67-1.49,1.49-1.49
	S485.31,197.11,485.31,197.93z"/>
<text transform="matrix(1 0 0 1 41.0114 239.1674)" class="st5 st6">0.000</text>
<text transform="matrix(1 0 0 1 41.0114 164.4066)" class="st5 st7">0.002</text>
<text transform="matrix(1 0 0 1 41.0114 89.6772)" class="st5 st6">0.004</text>
<text transform="matrix(1 0 0 1 41.0114 14.9169)" class="st5 st7">0.006</text>
<text transform="matrix(1 0 0 1 74.088 256.4428)" class="st5 st7">0.2ms</text>
<text transform="matrix(1 0 0 1 139.0939 256.4428)" class="st5 st7">0.4ms</text>
<text transform="matrix(1 0 0 1 204.1144 256.4428)" class="st5 st7">0.6ms</text>
<text transform="matrix(1 0 0 1 269.1207 256.4428)" class="st5 st7">0.8ms</text>
<text transform="matrix(1 0 0 1 334.1412 256.4428)" class="st5 st7">1.0ms</text>
<text transform="matrix(1 0 0 1 399.1617 256.4428)" class="st5 st7">1.2ms</text>
<text transform="matrix(1 0 0 1 464.1676 256.4428)" class="st5 st7">1.4ms</text>
<line class="st8" x1="95.44" y1="579.15" x2="95.44" y2="357.33"/>
<path class="st8" d="M95.44,357.33h4.23 M95.44,412.75h4.23 M95.44,468.22h4.23 M95.44,523.68h4.23 M95.44,579.15h4.23
	 M95.44,357.33h3.15 M95.44,385.06h3.15 M95.44,412.75h3.15 M95.44,440.52h3.15 M95.44,468.22h3.15 M95.44,495.99h3.15
	 M95.44,523.68h3.15 M95.44,551.45h3.15 M95.44,579.15h3.15"/>
<line class="st8" x1="95.44" y1="579.15" x2="488.02" y2="579.15"/>
<path class="st8" d="M488.02,574.82v4.33 M444.38,574.82v4.33 M400.79,574.82v4.33 M357.19,574.82v4.33 M313.54,574.82v4.33
	 M269.95,574.82v4.33 M226.28,574.82v4.33 M182.69,574.82v4.33 M139.09,574.82v4.33 M95.44,574.82v4.33"/>
<polyline class="st9" points="95.44,481.2 139.09,517.29 182.69,523.25 226.28,515.35 269.95,551.59 313.54,552.31 357.19,552.88 
	400.79,553.53 444.38,553.46 488.02,554.2 "/>
<path class="st10" d="M96.84,481.12c0,0.81-0.65,1.47-1.44,1.47c-0.79,0-1.43-0.66-1.43-1.47s0.64-1.47,1.43-1.47
	C96.2,479.65,96.84,480.31,96.84,481.12z"/>
<path class="st10" d="M140.43,517.22c0,0.8-0.65,1.46-1.44,1.46c-0.79,0-1.43-0.66-1.43-1.46c0-0.81,0.64-1.47,1.43-1.47
	C139.79,515.75,140.43,516.41,140.43,517.22z"/>
<path class="st10" d="M184.03,523.17c0,0.81-0.65,1.47-1.44,1.47c-0.8,0-1.44-0.66-1.44-1.47s0.64-1.46,1.44-1.46
	C183.38,521.7,184.03,522.35,184.03,523.17z"/>
<path class="st10" d="M227.69,515.28c0,0.8-0.65,1.46-1.44,1.46c-0.8,0-1.44-0.66-1.44-1.46c0-0.81,0.64-1.47,1.44-1.47
	C227.05,513.81,227.69,514.47,227.69,515.28z"/>
<path class="st10" d="M271.27,551.58c0,0.81-0.63,1.47-1.43,1.47c-0.8,0-1.44-0.66-1.44-1.47c0-0.81,0.64-1.47,1.44-1.47
	C270.64,550.11,271.27,550.77,271.27,551.58z"/>
<path class="st10" d="M314.94,552.23c0,0.8-0.65,1.46-1.43,1.46c-0.8,0-1.44-0.66-1.44-1.46c0-0.81,0.64-1.47,1.44-1.47
	C314.29,550.76,314.94,551.42,314.94,552.23z"/>
<path class="st10" d="M358.53,552.87c0,0.81-0.65,1.47-1.44,1.47c-0.79,0-1.43-0.66-1.43-1.47c0-0.81,0.64-1.46,1.43-1.46
	C357.89,551.41,358.53,552.06,358.53,552.87z"/>
<path class="st10" d="M402.13,553.45c0,0.81-0.65,1.47-1.44,1.47s-1.43-0.66-1.43-1.47c0-0.81,0.64-1.47,1.43-1.47
	S402.13,552.64,402.13,553.45z"/>
<path class="st10" d="M445.79,553.45c0,0.81-0.64,1.47-1.44,1.47c-0.79,0-1.44-0.66-1.44-1.47c0-0.81,0.65-1.47,1.44-1.47
	C445.14,551.98,445.79,552.64,445.79,553.45z"/>
<path class="st10" d="M489.38,554.17c0,0.8-0.65,1.46-1.44,1.46c-0.8,0-1.44-0.66-1.44-1.46c0-0.81,0.64-1.47,1.44-1.47
	C488.74,552.7,489.38,553.36,489.38,554.17z"/>
<polyline class="st11" points="95.44,402.77 139.09,440.74 182.69,451.93 226.28,451.86 269.95,507.47 313.54,535.09 357.19,535.16 
	400.79,535.16 444.38,535.23 488.02,535.16 "/>
<rect x="93.97" y="401.23" class="st12" width="2.87" height="2.94"/>
<rect x="137.56" y="439.26" class="st12" width="2.87" height="2.94"/>
<rect x="181.15" y="450.46" class="st12" width="2.87" height="2.94"/>
<rect x="224.81" y="450.31" class="st12" width="2.87" height="2.94"/>
<rect x="268.4" y="505.99" class="st12" width="2.87" height="2.94"/>
<rect x="312.07" y="533.61" class="st12" width="2.87" height="2.94"/>
<rect x="355.66" y="533.69" class="st12" width="2.87" height="2.94"/>
<rect x="399.26" y="533.69" class="st12" width="2.87" height="2.94"/>
<rect x="442.91" y="533.69" class="st12" width="2.87" height="2.94"/>
<rect x="486.5" y="533.69" class="st12" width="2.87" height="2.94"/>
<text transform="matrix(1 0 0 1.0238 44.4255 583.7842)" class="st5 st13">0.000</text>
<text transform="matrix(1 0 0 1.0238 44.4255 528.3301)" class="st5 st13">0.002</text>
<text transform="matrix(1 0 0 1.0238 44.4255 472.8614)" class="st5 st13">0.004</text>
<text transform="matrix(1 0 0 1.0238 44.4255 417.3926)" class="st5 st13">0.006</text>
<text transform="matrix(1 0 0 1.0238 44.4255 361.9244)" class="st5 st13">0.008</text>
<text transform="matrix(1 0 0 1.0238 89.6082 600.8721)" class="st5 st13">2</text>
<text transform="matrix(1 0 0 1.0238 133.2488 600.8721)" class="st5 st13">4</text>
<text transform="matrix(1 0 0 1.0238 176.8894 600.8721)" class="st5 st13">6</text>
<text transform="matrix(1 0 0 1.0238 220.5027 600.8721)" class="st5 st13">8</text>
<text transform="matrix(1 0 0 1.0238 260.2478 600.8721)" class="st5 st13">10</text>
<text transform="matrix(1 0 0 1.0238 303.8601 600.8721)" class="st5 st13">12</text>
<text transform="matrix(1 0 0 1.0238 347.5007 600.8721)" class="st5 st13">14</text>
<text transform="matrix(1 0 0 1.0238 391.1423 600.8721)" class="st5 st13">16</text>
<text transform="matrix(1 0 0 1.0238 434.7546 600.8721)" class="st5 st13">18</text>
<text transform="matrix(1 0 0 1.0238 478.3953 600.8721)" class="st5 st13">20</text>
<line class="st8" x1="593.37" y1="579.53" x2="593.37" y2="355.35"/>
<path class="st8" d="M593.37,355.35h4.2 M593.37,400.2h4.2 M593.37,445.01h4.2 M593.37,489.83h4.2 M593.37,534.72h4.2
	 M593.37,579.53h4.2 M593.37,355.35h3.13 M593.37,377.79h3.13 M593.37,400.2h3.13 M593.37,422.6h3.13 M593.37,445.01h3.13
	 M593.37,467.42h3.13 M593.37,489.83h3.13 M593.37,512.31h3.13 M593.37,534.72h3.13 M593.37,557.12h3.13 M593.37,579.53h3.13"/>
<line class="st8" x1="593.37" y1="579.53" x2="983.32" y2="579.53"/>
<path class="st8" d="M983.32,575.16v4.38 M939.96,575.16v4.38 M896.66,575.16v4.38 M853.36,575.16v4.38 M810,575.16v4.38
	 M766.7,575.16v4.38 M723.33,575.16v4.38 M680.03,575.16v4.38 M636.73,575.16v4.38 M593.37,575.16v4.38"/>
<path class="st10" d="M638.07,484.6c0,0.82-0.64,1.49-1.43,1.49s-1.42-0.67-1.42-1.49s0.63-1.49,1.42-1.49
	S638.07,483.78,638.07,484.6z"/>
<path class="st10" d="M681.37,534.27c0,0.82-0.64,1.49-1.43,1.49s-1.43-0.67-1.43-1.49s0.64-1.48,1.43-1.48
	S681.37,533.44,681.37,534.27z"/>
<ellipse class="st10" cx="723.31" cy="558.93" rx="1.43" ry="1.49"/>
<path class="st10" d="M768.03,559c0,0.82-0.63,1.49-1.42,1.49s-1.43-0.67-1.43-1.49c0-0.82,0.64-1.49,1.43-1.49
	S768.03,558.18,768.03,559z"/>
<path class="st10" d="M811.4,559.36c0,0.82-0.64,1.49-1.42,1.49c-0.79,0-1.43-0.67-1.43-1.49s0.64-1.49,1.43-1.49
	C810.75,557.87,811.4,558.54,811.4,559.36z"/>
<path class="st10" d="M854.7,559.36c0,0.82-0.64,1.49-1.43,1.49c-0.78,0-1.42-0.67-1.42-1.49s0.64-1.49,1.42-1.49
	C854.06,557.87,854.7,558.54,854.7,559.36z"/>
<path class="st10" d="M897.99,559.22c0,0.82-0.64,1.49-1.43,1.49s-1.42-0.67-1.42-1.49s0.63-1.49,1.42-1.49
	S897.99,558.39,897.99,559.22z"/>
<ellipse class="st10" cx="939.94" cy="559.14" rx="1.43" ry="1.49"/>
<path class="st10" d="M984.67,559.29c0,0.82-0.64,1.49-1.43,1.49s-1.43-0.67-1.43-1.49s0.64-1.49,1.43-1.49
	S984.67,558.47,984.67,559.29z"/>
<polyline class="st11" points="593.37,369.66 636.73,534.86 680.03,543.92 723.33,543.85 766.7,544 810,543.92 853.36,544 
	896.66,544 939.96,544.02 983.32,544 "/>
<rect x="591.91" y="368.17" class="st12" width="2.85" height="2.97"/>
<rect x="635.21" y="533.37" class="st12" width="2.85" height="2.97"/>
<rect x="678.5" y="542.43" class="st12" width="2.85" height="2.97"/>
<rect x="721.87" y="542.28" class="st12" width="2.85" height="2.97"/>
<rect x="765.18" y="542.5" class="st12" width="2.85" height="2.97"/>
<rect x="808.54" y="542.36" class="st12" width="2.85" height="2.97"/>
<rect x="851.85" y="542.43" class="st12" width="2.85" height="2.97"/>
<rect x="895.15" y="542.43" class="st12" width="2.85" height="2.97"/>
<rect x="938.5" y="542.5" class="st12" width="2.85" height="2.97"/>
<rect x="981.81" y="542.43" class="st12" width="2.85" height="2.97"/>
<text transform="matrix(1 0 0 1.0417 542.7029 584.2195)" class="st5 st14">0.000</text>
<text transform="matrix(1 0 0 1.0417 542.7029 539.3679)" class="st5 st14">0.002</text>
<text transform="matrix(1 0 0 1.0417 542.7029 494.5158)" class="st5 st15">0.0</text>
<text transform="matrix(1 0 0 1.0417 562.0857 494.5158)" class="st5 st15">0</text>
<text transform="matrix(1 0 0 1.0417 569.7683 494.5158)" class="st5 st15">4</text>
<text transform="matrix(1 0 0 1.0417 542.7029 449.6906)" class="st5 st14">0.006</text>
<text transform="matrix(1 0 0 1.0417 542.7029 404.8396)" class="st5 st14">0.008</text>
<text transform="matrix(1 0 0 1.0417 542.7029 360.0178)" class="st5 st14">0.010</text>
<text transform="matrix(1 0 0 1.0417 587.5808 601.5144)" class="st5 st14">1</text>
<text transform="matrix(1 0 0 1.0417 630.9275 601.5144)" class="st5 st14">2</text>
<text transform="matrix(1 0 0 1.0417 674.2742 601.5144)" class="st5 st14">3</text>
<text transform="matrix(1 0 0 1.0417 717.5935 601.5144)" class="st5 st14">4</text>
<text transform="matrix(1 0 0 1.0417 760.9392 601.5144)" class="st5 st14">5</text>
<text transform="matrix(1 0 0 1.0417 804.2859 601.5144)" class="st5 st14">6</text>
<text transform="matrix(1 0 0 1.0417 847.6052 601.5144)" class="st5 st14">7</text>
<text transform="matrix(1 0 0 1.0417 890.9509 601.5144)" class="st5 st14">8</text>
<text transform="matrix(1 0 0 1.0417 934.2976 601.5144)" class="st5 st14">9</text>
<text transform="matrix(1 0 0 1.0417 973.7605 601.5144)" class="st5 st14">10</text>
<text transform="matrix(0 -1 1 0 20.8204 149.519)" class="st5 st16">MAPE</text>
<text transform="matrix(1 0 0 1 200.0577 282.6176)" class="st5 st16">Sampling time (T</text>
<text transform="matrix(1 0 0 1 343.6525 282.6176)" class="st5 st17">sample</text>
<text transform="matrix(1 0 0 1 388.7833 282.6176)" class="st5 st16">)</text>
<text transform="matrix(1 0 0 1 434.3273 41.038)" class="st18 st19">V</text>
<text transform="matrix(1 0 0 1 444.9991 41.038)" class="st5 st20">th</text>
<text transform="matrix(1 0 0 1 110.8302 22.6161)" class="st18 st16">N</text>
<text transform="matrix(1 0 0 1 124.5485 22.6161)" class="st5 st16"> = 10</text>
<text transform="matrix(1 0 0 1 111.8942 45.4159)" class="st18 st16">T</text>
<text transform="matrix(1 0 0 1 123.5031 45.4159)" class="st5 st16"> = 12</text>
<text transform="matrix(1 0 0 1 113.6599 367.1368)" class="st5 st16">T</text>
<text transform="matrix(1 0 0 1 125.2576 367.1417)" class="st5 st17">sample</text>
<text transform="matrix(1 0 0 1 170.3884 367.1417)" class="st5 st16"> = 1.0ms</text>
<text transform="matrix(1 0 0 1 113.6541 389.9415)" class="st18 st16">N</text>
<text transform="matrix(1 0 0 1 127.3718 389.9415)" class="st5 st16"> = 10</text>
<text transform="matrix(1 0 0 1 642.6931 364.8015)" class="st5 st16">T</text>
<text transform="matrix(1 0 0 1 654.3044 364.8083)" class="st5 st17">sample</text>
<text transform="matrix(1 0 0 1 699.4353 364.8083)" class="st5 st16"> = 1.0ms</text>
<text transform="matrix(1 0 0 1 642.7009 387.6081)" class="st18 st16">N</text>
<text transform="matrix(1 0 0 1 656.4187 387.6081)" class="st5 st16"> = 10</text>
<text transform="matrix(1 0 0 1 441.0841 62.038)" class="st18 st19">k</text>
<text transform="matrix(1 0 0 1 189.9646 626.1417)" class="st5 st16">Iterations on training (</text>
<text transform="matrix(1 0 0 1 373.7322 626.1417)" class="st5 st16">T</text>
<text transform="matrix(1 0 0 1 385.3416 626.1417)" class="st5 st16">)</text>
<text transform="matrix(1 0 0 1 686.0955 624.8083)" class="st5 st16">Iterations on inference (</text>
<text transform="matrix(1 0 0 1 885.7097 624.8083)" class="st5 st16">T</text>
<text transform="matrix(1 0 0 1 897.3181 624.8083)" class="st5 st16">)</text>
<text transform="matrix(0 -1 1 0 24.0435 496.0414)" class="st5 st16">MAPE</text>
<text transform="matrix(0 -1 1 0 528.0975 488.7045)" class="st5 st16">MAPE</text>
<text transform="matrix(1 0 0 1 274.4396 314.4369)" class="st21 st22">(a)</text>
<text transform="matrix(1 0 0 1 277.6619 655.962)" class="st21 st22">(c)</text>
<text transform="matrix(1 0 0 1 773.0369 654.6287)" class="st21 st22">(d)</text>
<line class="st1" x1="377.75" y1="37.02" x2="420.75" y2="37.02"/>
<line class="st23" x1="378.25" y1="56.52" x2="421.25" y2="56.52"/>
<path class="st4" d="M399.78,56.9c0,0.82-0.66,1.48-1.49,1.48c-0.82,0-1.48-0.66-1.48-1.48c0-0.82,0.66-1.49,1.48-1.49
	C399.12,55.41,399.78,56.08,399.78,56.9z"/>
<line class="st23" x1="377.25" y1="56.52" x2="420.25" y2="56.52"/>
<polyline class="st24" points="474.75,74.52 474.75,76.02 473.25,76.02 "/>
<line class="st25" x1="470.3" y1="76.02" x2="371.72" y2="76.02"/>
<polyline class="st24" points="370.25,76.02 368.75,76.02 368.75,74.52 "/>
<line class="st26" x1="368.75" y1="71.62" x2="368.75" y2="20.96"/>
<polyline class="st24" points="368.75,19.52 368.75,18.02 370.25,18.02 "/>
<line class="st25" x1="373.19" y1="18.02" x2="471.78" y2="18.02"/>
<polyline class="st24" points="473.25,18.02 474.75,18.02 474.75,19.52 "/>
<line class="st26" x1="474.75" y1="22.41" x2="474.75" y2="73.07"/>
<rect x="400.54" y="379.59" class="st2" width="2.97" height="2.97"/>
<path class="st4" d="M404.01,400.42c0,0.82-0.66,1.48-1.49,1.48c-0.82,0-1.48-0.66-1.48-1.48c0-0.82,0.66-1.49,1.48-1.49
	C403.35,398.93,404.01,399.6,404.01,400.42z"/>
<text transform="matrix(1 0 0 1 437.5574 384.563)" class="st18 st19">V</text>
<text transform="matrix(1 0 0 1 448.2292 384.563)" class="st5 st20">th</text>
<text transform="matrix(1 0 0 1 444.3142 405.563)" class="st18 st19">k</text>
<line class="st1" x1="380.98" y1="380.54" x2="423.98" y2="380.54"/>
<line class="st23" x1="381.48" y1="400.04" x2="424.48" y2="400.04"/>
<path class="st4" d="M403.01,400.42c0,0.82-0.66,1.48-1.49,1.48c-0.82,0-1.48-0.66-1.48-1.48c0-0.82,0.66-1.49,1.48-1.49
	C402.35,398.93,403.01,399.6,403.01,400.42z"/>
<line class="st23" x1="380.48" y1="400.04" x2="423.48" y2="400.04"/>
<polyline class="st24" points="477.98,418.04 477.98,419.54 476.48,419.54 "/>
<line class="st25" x1="473.53" y1="419.54" x2="374.95" y2="419.54"/>
<polyline class="st24" points="373.48,419.54 371.98,419.54 371.98,418.04 "/>
<line class="st26" x1="371.98" y1="415.15" x2="371.98" y2="364.49"/>
<polyline class="st24" points="371.98,363.04 371.98,361.54 373.48,361.54 "/>
<line class="st25" x1="376.42" y1="361.54" x2="475.01" y2="361.54"/>
<polyline class="st24" points="476.48,361.54 477.98,361.54 477.98,363.04 "/>
<line class="st26" x1="477.98" y1="365.94" x2="477.98" y2="416.59"/>
<rect x="908.04" y="34.25" class="st2" width="2.97" height="2.97"/>
<path class="st4" d="M911.51,55.08c0,0.82-0.66,1.48-1.49,1.48c-0.82,0-1.48-0.66-1.48-1.48c0-0.82,0.66-1.49,1.48-1.49
	C910.85,53.59,911.51,54.26,911.51,55.08z"/>
<text transform="matrix(1 0 0 1 945.0623 39.223)" class="st18 st19">V</text>
<text transform="matrix(1 0 0 1 955.7341 39.223)" class="st5 st20">th</text>
<text transform="matrix(1 0 0 1 951.8191 60.223)" class="st18 st19">k</text>
<line class="st1" x1="888.48" y1="35.2" x2="931.48" y2="35.2"/>
<line class="st23" x1="888.98" y1="54.7" x2="931.98" y2="54.7"/>
<path class="st4" d="M910.51,55.08c0,0.82-0.66,1.48-1.49,1.48c-0.82,0-1.48-0.66-1.48-1.48c0-0.82,0.66-1.49,1.48-1.49
	C909.85,53.59,910.51,54.26,910.51,55.08z"/>
<line class="st23" x1="887.98" y1="54.7" x2="930.98" y2="54.7"/>
<polyline class="st24" points="985.48,72.7 985.48,74.2 983.98,74.2 "/>
<line class="st25" x1="981.04" y1="74.2" x2="882.45" y2="74.2"/>
<polyline class="st24" points="880.98,74.2 879.48,74.2 879.48,72.7 "/>
<line class="st26" x1="879.48" y1="69.81" x2="879.48" y2="19.15"/>
<polyline class="st24" points="879.48,17.7 879.48,16.2 880.98,16.2 "/>
<line class="st25" x1="883.93" y1="16.2" x2="982.51" y2="16.2"/>
<polyline class="st24" points="983.98,16.2 985.48,16.2 985.48,17.7 "/>
<line class="st26" x1="985.48" y1="20.6" x2="985.48" y2="71.25"/>
<polyline class="st24" points="982.71,71.23 982.71,72.73 981.21,72.73 "/>
<rect x="900.58" y="377.25" class="st2" width="2.97" height="2.97"/>
<path class="st4" d="M904.05,398.09c0,0.82-0.66,1.48-1.49,1.48c-0.82,0-1.48-0.66-1.48-1.48c0-0.82,0.66-1.49,1.48-1.49
	C903.39,396.6,904.05,397.27,904.05,398.09z"/>
<text transform="matrix(1 0 0 1 937.6042 382.2297)" class="st18 st19">V</text>
<text transform="matrix(1 0 0 1 948.2761 382.2297)" class="st5 st20">th</text>
<text transform="matrix(1 0 0 1 944.3611 403.2297)" class="st18 st19">k</text>
<line class="st1" x1="881.02" y1="378.21" x2="924.02" y2="378.21"/>
<line class="st23" x1="881.52" y1="397.71" x2="924.52" y2="397.71"/>
<path class="st4" d="M903.05,398.09c0,0.82-0.66,1.48-1.49,1.48c-0.82,0-1.48-0.66-1.48-1.48c0-0.82,0.66-1.49,1.48-1.49
	C902.39,396.6,903.05,397.27,903.05,398.09z"/>
<line class="st23" x1="880.52" y1="397.71" x2="923.52" y2="397.71"/>
<polyline class="st24" points="978.02,415.71 978.02,417.21 976.52,417.21 "/>
<line class="st25" x1="973.58" y1="417.21" x2="875" y2="417.21"/>
<polyline class="st24" points="873.52,417.21 872.02,417.21 872.02,415.71 "/>
<line class="st26" x1="872.02" y1="412.81" x2="872.02" y2="362.16"/>
<polyline class="st24" points="872.02,360.71 872.02,359.21 873.52,359.21 "/>
<line class="st25" x1="876.47" y1="359.21" x2="975.05" y2="359.21"/>
<polyline class="st24" points="976.52,359.21 978.02,359.21 978.02,360.71 "/>
<line class="st26" x1="978.02" y1="363.6" x2="978.02" y2="414.26"/>
<line class="st9" x1="939.58" y1="559.36" x2="983.16" y2="559.36"/>
<line class="st9" x1="896.57" y1="559.36" x2="939.58" y2="559.36"/>
<line class="st9" x1="853.36" y1="559.36" x2="896.57" y2="559.36"/>
<line class="st9" x1="810" y1="559.36" x2="853.36" y2="559.36"/>
<line class="st9" x1="766.6" y1="559" x2="810" y2="559.36"/>
<line class="st9" x1="723.3" y1="559" x2="766.6" y2="559"/>
<line class="st9" x1="680.03" y1="534.27" x2="723.3" y2="559"/>
<line class="st9" x1="636.64" y1="484.6" x2="680.03" y2="534.27"/>
<line class="st9" x1="630.93" y1="355.35" x2="636.64" y2="484.6"/>
<line class="st27" x1="592.5" y1="236.07" x2="592.5" y2="11.26"/>
<path class="st27" d="M592.5,11.26h4.01 M592.5,86.23h4.01 M592.5,161.12h4.01 M592.5,236.07h4.01 M592.5,11.26h3.01 M592.5,48.71
	h3.01 M592.5,86.23h3.01 M592.5,123.68h3.01 M592.5,161.12h3.01 M592.5,198.57h3.01 M592.5,236.07h3.01"/>
<line class="st27" x1="592.5" y1="236.07" x2="983.54" y2="236.07"/>
<path class="st27" d="M983.54,231.68v4.39 M918.37,231.68v4.39 M853.17,231.68v4.39 M788.02,231.68v4.39 M722.88,231.68v4.39
	 M657.67,231.68v4.39 M592.5,231.68v4.39"/>
<g>
	<defs>
		<rect id="SVGID_3_" x="592.45" y="11.25" width="391.47" height="225.21"/>
	</defs>
	<clipPath id="SVGID_4_">
		<use xlink:href="#SVGID_3_"  style="overflow:visible;"/>
	</clipPath>
	<polyline class="st28" points="592.5,104.47 657.67,144.26 722.88,168.76 788.02,169.2 853.17,176.67 918.37,148.91 983.54,170.5 	
		"/>
</g>
<rect x="591.09" y="102.95" class="st12" width="2.72" height="2.98"/>
<rect x="656.3" y="142.79" class="st12" width="2.72" height="2.98"/>
<rect x="721.45" y="167.3" class="st12" width="2.72" height="2.98"/>
<rect x="786.59" y="167.74" class="st12" width="2.72" height="2.98"/>
<rect x="851.8" y="175.15" class="st12" width="2.72" height="2.98"/>
<rect x="916.95" y="147.38" class="st12" width="2.72" height="2.98"/>
<rect x="982.15" y="169.05" class="st12" width="2.72" height="2.98"/>
<g>
	<defs>
		<rect id="SVGID_5_" x="592.45" y="11.25" width="391.47" height="225.21"/>
	</defs>
	<clipPath id="SVGID_6_">
		<use xlink:href="#SVGID_5_"  style="overflow:visible;"/>
	</clipPath>
	<polyline class="st29" points="592.5,69.37 657.67,193.93 722.88,200.1 788.02,192.4 853.17,202.22 918.37,196.25 983.54,177.93 	
		"/>
</g>
<path class="st10" d="M593.81,69.39c0,0.82-0.61,1.49-1.36,1.49c-0.75,0-1.36-0.67-1.36-1.49c0-0.82,0.61-1.49,1.36-1.49
	C593.2,67.89,593.81,68.56,593.81,69.39z"/>
<path class="st10" d="M659.02,193.88c0,0.82-0.61,1.49-1.36,1.49c-0.74,0-1.35-0.67-1.35-1.49c0-0.82,0.61-1.49,1.35-1.49
	C658.41,192.39,659.02,193.06,659.02,193.88z"/>
<path class="st10" d="M724.16,200.13c0,0.82-0.6,1.49-1.35,1.49c-0.75,0-1.36-0.67-1.36-1.49c0-0.82,0.61-1.48,1.36-1.48
	C723.56,198.65,724.16,199.31,724.16,200.13z"/>
<path class="st10" d="M789.31,192.36c0,0.82-0.6,1.49-1.35,1.49c-0.75,0-1.36-0.67-1.36-1.49c0-0.82,0.61-1.49,1.36-1.49
	C788.71,190.86,789.31,191.53,789.31,192.36z"/>
<path class="st10" d="M854.52,202.24c0,0.82-0.61,1.49-1.36,1.49c-0.75,0-1.36-0.67-1.36-1.49c0-0.82,0.61-1.48,1.36-1.48
	C853.91,200.76,854.52,201.41,854.52,202.24z"/>
<path class="st10" d="M919.67,196.21c0,0.82-0.61,1.48-1.36,1.48c-0.75,0-1.35-0.66-1.35-1.48c0-0.82,0.6-1.49,1.35-1.49
	C919.05,194.72,919.67,195.39,919.67,196.21z"/>
<path class="st10" d="M984.88,177.96c0,0.82-0.61,1.48-1.36,1.48c-0.75,0-1.36-0.66-1.36-1.48c0-0.82,0.61-1.49,1.36-1.49
	C984.27,176.46,984.88,177.13,984.88,177.96z"/>
<text transform="matrix(1 0 0 1.095 544.1661 240.7616)" class="st5 st30">0.0</text>
<text transform="matrix(1 0 0 1.095 562.6329 240.7616)" class="st5 st30">0</text>
<text transform="matrix(1 0 0 1.095 569.9664 240.7616)" class="st5 st30">0</text>
<text transform="matrix(1 0 0 1.095 544.1661 165.8095)" class="st5 st30">0.0</text>
<text transform="matrix(1 0 0 1.095 562.6329 165.8095)" class="st5 st30">0</text>
<text transform="matrix(1 0 0 1.095 569.9664 165.8095)" class="st5 st30">2</text>
<text transform="matrix(1 0 0 1.095 544.1661 90.8715)" class="st5 st30">0.0</text>
<text transform="matrix(1 0 0 1.095 562.6329 90.8715)" class="st5 st30">0</text>
<text transform="matrix(1 0 0 1.095 569.9664 90.8715)" class="st5 st30">4</text>
<text transform="matrix(1 0 0 1.095 544.1661 15.9193)" class="st5 st30">0.0</text>
<text transform="matrix(1 0 0 1.095 562.6329 15.9193)" class="st5 st30">0</text>
<text transform="matrix(1 0 0 1.095 569.9664 15.9193)" class="st5 st30">6</text>
<text transform="matrix(1 0 0 1.095 586.9854 258.0741)" class="st5 st30">2</text>
<text transform="matrix(1 0 0 1.095 652.1773 258.0741)" class="st5 st30">4</text>
<text transform="matrix(1 0 0 1.095 717.356 258.0741)" class="st5 st30">6</text>
<text transform="matrix(1 0 0 1.095 782.5347 258.0741)" class="st5 st30">8</text>
<text transform="matrix(1 0 0 1.095 844.0333 258.0741)" class="st5 st30">10</text>
<text transform="matrix(1 0 0 1.095 909.2252 258.0741)" class="st5 st30">1</text>
<text transform="matrix(1 0 0 1.095 916.5987 258.0741)" class="st5 st30">2</text>
<text transform="matrix(1 0 0 1.095 974.4039 258.0741)" class="st5 st30">1</text>
<text transform="matrix(1 0 0 1.095 981.7774 258.0741)" class="st5 st30">4</text>
<text transform="matrix(1 0 0 1 607.8594 22.4086)" class="st5 st16">T</text>
<text transform="matrix(1 0 0 1 619.4542 22.4022)" class="st5 st17">sample</text>
<text transform="matrix(1 0 0 1 664.585 22.4022)" class="st5 st16"> = 1.0ms</text>
<text transform="matrix(1 0 0 1 607.8511 45.202)" class="st18 st16">T</text>
<text transform="matrix(1 0 0 1 619.46 45.202)" class="st5 st16"> = 12</text>
<text transform="matrix(1 0 0 1 678.399 281.4071)" class="st5 st16">The number of samples (</text>
<text transform="matrix(1 0 0 1 889.6031 281.4071)" class="st5 st16">N</text>
<text transform="matrix(1 0 0 1 903.3209 281.4071)" class="st5 st16">)</text>
<text transform="matrix(0 -1 1 0 528.2476 145.3051)" class="st5 st16">MAPE</text>
<text transform="matrix(1 0 0 1 772.1949 313.2226)" class="st21 st22">(b)</text>
</svg>
