<?xml version="1.0" encoding="utf-8"?>
<!-- Generator: Adobe Illustrator 24.3.0, SVG Export Plug-In . SVG Version: 6.00 Build 0)  -->
<svg version="1.1" id="레이어_1" xmlns="http://www.w3.org/2000/svg" xmlns:xlink="http://www.w3.org/1999/xlink" x="0px"
	 y="0px" viewBox="0 0 396 542" style="enable-background:new 0 0 396 542;" xml:space="preserve">
<style type="text/css">
	.st0{fill:none;}
	.st1{fill:#FFFFFF;}
	.st2{font-family:'ArialMT';}
	.st3{font-size:12px;}
</style>
<image style="overflow:visible;enable-background:new    ;" width="128" height="128" xlink:href="7F6CC0E0.jpeg"  transform="matrix(1 0 0 1 1 0)">
</image>
<image style="overflow:visible;enable-background:new    ;" width="128" height="128" xlink:href="7F6CC0E0.jpeg"  transform="matrix(1 0 0 1 267 0)">
</image>
<image style="overflow:visible;enable-background:new    ;" width="128" height="128" xlink:href="7F6CC0E0.jpeg"  transform="matrix(1 0 0 1 134 0)">
</image>
<image style="overflow:visible;enable-background:new    ;" width="128" height="128" xlink:href="7F6CC0E0.jpg"  transform="matrix(1 0 0 1 1 276)">
</image>
<image style="overflow:visible;enable-background:new    ;" width="128" height="128" xlink:href="7F6CC0E3.jpg"  transform="matrix(1 0 0 1 134 276)">
</image>
<image style="overflow:visible;enable-background:new    ;" width="128" height="128" xlink:href="7F6CC0E1.jpg"  transform="matrix(1 0 0 1 267 276)">
</image>
<image style="overflow:visible;enable-background:new    ;" width="129" height="128" xlink:href="7F6CC0EF.jpg"  transform="matrix(0.9922 0 0 0.9922 0 414.4961)">
</image>
<image style="overflow:visible;enable-background:new    ;" width="128" height="128" xlink:href="7F6CC0E2.jpg"  transform="matrix(1 0 0 1 134 414)">
</image>
<image style="overflow:visible;enable-background:new    ;" width="128" height="128" xlink:href="7F6CC0E5.jpg"  transform="matrix(1 0 0 1 268 414)">
</image>
<image style="overflow:visible;enable-background:new    ;" width="128" height="128" xlink:href="6AB7E0BF.jpeg"  transform="matrix(1 0 0 1 0 138)">
</image>
<image style="overflow:visible;enable-background:new    ;" width="128" height="128" xlink:href="6AB7E0BD.jpeg"  transform="matrix(1 0 0 1 134 138)">
</image>
<image style="overflow:visible;enable-background:new    ;" width="128" height="128" xlink:href="6AB7E0BB.jpeg"  transform="matrix(1 0 0 1 268 138)">
</image>
<rect x="0.5" y="138.3" class="st0" width="71.2" height="10.6"/>
<text transform="matrix(1 0 0 1 0.4844 148.603)" class="st1 st2 st3">City1</text>
<rect x="1.5" y="276.3" class="st0" width="71.2" height="10.6"/>
<text transform="matrix(1 0 0 1 1.4844 286.603)" class="st1 st2 st3">Sea</text>
<rect x="0.5" y="414.3" class="st0" width="71.2" height="10.6"/>
<text transform="matrix(1 0 0 1 0.4844 424.603)" class="st1 st2 st3">City2</text>
<rect x="0.5" y="0.3" class="st0" width="71.2" height="10.6"/>
<text transform="matrix(1 0 0 1 0.4844 10.603)" class="st1 st2 st3">Night</text>
</svg>
