<?xml version="1.0" encoding="utf-8"?>
<!-- Generator: Adobe Illustrator 24.3.0, SVG Export Plug-In . SVG Version: 6.00 Build 0)  -->
<svg version="1.1" id="레이어_1" xmlns="http://www.w3.org/2000/svg" xmlns:xlink="http://www.w3.org/1999/xlink" x="0px"
	 y="0px" viewBox="0 0 685.69 1397.23" style="enable-background:new 0 0 685.69 1397.23;" xml:space="preserve">
<style type="text/css">
	.st0{fill:none;stroke:#000000;stroke-width:1.209;stroke-linejoin:round;stroke-miterlimit:10;}
	.st1{fill:none;stroke:#C55A11;stroke-width:1.511;stroke-linecap:round;stroke-linejoin:round;stroke-miterlimit:10;}
	.st2{fill:none;stroke:#C55A11;stroke-width:5.15;stroke-linejoin:round;stroke-miterlimit:10;}
	
		.st3{clip-path:url(#SVGID_2_);fill:none;stroke:#2E75B6;stroke-width:1.36;stroke-linecap:round;stroke-linejoin:round;stroke-miterlimit:10;}
	.st4{fill:none;stroke:#2E75B6;stroke-width:5.15;stroke-linejoin:round;stroke-miterlimit:10;}
	.st5{font-family:'ArialMT';}
	.st6{font-size:14.496px;}
	.st7{font-size:14.52px;}
	.st8{fill:none;stroke:#000000;stroke-width:1.16;stroke-linejoin:round;stroke-miterlimit:10;}
	.st9{fill:none;stroke:#2E75B6;stroke-width:1.242;stroke-linecap:round;stroke-linejoin:round;stroke-miterlimit:10;}
	.st10{fill:none;stroke:#2E75B6;stroke-width:4.702;stroke-linejoin:round;stroke-miterlimit:10;}
	.st11{fill:none;stroke:#C55A11;stroke-width:1.242;stroke-linecap:round;stroke-linejoin:round;stroke-miterlimit:10;}
	.st12{fill:none;stroke:#C55A11;stroke-width:4.702;stroke-linejoin:round;stroke-miterlimit:10;}
	.st13{font-size:14.0144px;}
	.st14{font-size:13.9199px;}
	.st15{font-size:13.9439px;}
	.st16{font-size:19px;}
	.st17{font-size:14px;}
	.st18{font-family:'Arial-ItalicMT';}
	.st19{font-size:16px;}
	.st20{font-size:13px;}
	.st21{font-family:'TimesNewRomanPSMT';}
	.st22{font-size:24px;}
	.st23{fill:none;stroke:#2E75B6;stroke-width:1.36;stroke-linecap:round;stroke-linejoin:round;stroke-miterlimit:10;}
	.st24{fill:none;stroke:#000000;stroke-width:0.3;stroke-miterlimit:10;}
	.st25{fill:none;stroke:#000000;stroke-width:0.3;stroke-miterlimit:10;stroke-dasharray:2.943,2.943;}
	.st26{fill:none;stroke:#000000;stroke-width:0.3;stroke-miterlimit:10;stroke-dasharray:2.895,2.895;}
	.st27{fill:none;stroke:#000000;stroke-width:1.104;stroke-linejoin:round;stroke-miterlimit:10;}
	
		.st28{clip-path:url(#SVGID_4_);fill:none;stroke:#C55A11;stroke-width:1.242;stroke-linecap:round;stroke-linejoin:round;stroke-miterlimit:10;}
	
		.st29{clip-path:url(#SVGID_6_);fill:none;stroke:#2E75B6;stroke-width:1.242;stroke-linecap:round;stroke-linejoin:round;stroke-miterlimit:10;}
	.st30{font-size:13.2855px;}
</style>
<line class="st0" x1="171.68" y1="234.5" x2="171.68" y2="10.27"/>
<path class="st0" d="M171.68,10.27h4.38 M171.68,85h4.38 M171.68,159.78h4.38 M171.68,234.5h4.38 M171.68,10.27h3.26 M171.68,47.64
	h3.26 M171.68,85h3.26 M171.68,122.35h3.26 M171.68,159.78h3.26 M171.68,197.13h3.26 M171.68,234.5h3.26"/>
<line class="st0" x1="171.68" y1="234.5" x2="561.69" y2="234.5"/>
<path class="st0" d="M561.69,230.12v4.38 M496.69,230.12v4.38 M431.7,230.12v4.38 M366.71,230.12v4.38 M301.65,230.12v4.38
	 M236.67,230.12v4.38 M171.68,230.12v4.38"/>
<polyline class="st1" points="171.68,58.12 236.67,58.59 301.65,112.56 366.71,137.29 431.7,175.23 496.69,165.14 561.69,178.23 "/>
<rect x="170.19" y="56.59" class="st2" width="2.97" height="2.97"/>
<rect x="235.18" y="57.1" class="st2" width="2.97" height="2.97"/>
<rect x="300.17" y="111.06" class="st2" width="2.97" height="2.97"/>
<rect x="475.17" y="36.06" class="st2" width="2.97" height="2.97"/>
<rect x="365.16" y="135.8" class="st2" width="2.97" height="2.97"/>
<rect x="430.14" y="173.73" class="st2" width="2.97" height="2.97"/>
<rect x="495.13" y="163.65" class="st2" width="2.97" height="2.97"/>
<rect x="560.19" y="176.71" class="st2" width="2.97" height="2.97"/>
<g>
	<defs>
		<rect id="SVGID_1_" x="171.68" y="10.22" width="390.44" height="224.7"/>
	</defs>
	<clipPath id="SVGID_2_">
		<use xlink:href="#SVGID_1_"  style="overflow:visible;"/>
	</clipPath>
	<polyline class="st3" points="171.68,88.33 236.67,76.86 301.65,158.4 366.71,162.24 431.7,200.73 496.69,194.66 561.69,197.93 	
		"/>
</g>
<path class="st4" d="M173.16,88.26c0,0.82-0.66,1.49-1.48,1.49s-1.49-0.67-1.49-1.49c0-0.82,0.67-1.49,1.49-1.49
	S173.16,87.44,173.16,88.26z"/>
<path class="st4" d="M238.15,76.8c0,0.82-0.66,1.49-1.48,1.49c-0.83,0-1.49-0.67-1.49-1.49c0-0.82,0.66-1.49,1.49-1.49
	C237.49,75.31,238.15,75.98,238.15,76.8z"/>
<path class="st4" d="M303.14,158.4c0,0.82-0.66,1.48-1.49,1.48c-0.82,0-1.48-0.66-1.48-1.48c0-0.82,0.66-1.49,1.48-1.49
	C302.48,156.91,303.14,157.58,303.14,158.4z"/>
<path class="st4" d="M478.64,56.9c0,0.82-0.66,1.48-1.49,1.48c-0.82,0-1.48-0.66-1.48-1.48c0-0.82,0.66-1.49,1.48-1.49
	C477.98,55.41,478.64,56.08,478.64,56.9z"/>
<path class="st4" d="M368.13,162.24c0,0.82-0.67,1.49-1.49,1.49s-1.48-0.67-1.48-1.49c0-0.82,0.66-1.49,1.48-1.49
	S368.13,161.42,368.13,162.24z"/>
<path class="st4" d="M433.12,200.68c0,0.82-0.67,1.49-1.49,1.49s-1.49-0.67-1.49-1.49c0-0.82,0.67-1.48,1.49-1.48
	S433.12,199.86,433.12,200.68z"/>
<path class="st4" d="M498.11,194.66c0,0.82-0.67,1.49-1.49,1.49s-1.49-0.67-1.49-1.49s0.67-1.48,1.49-1.48
	S498.11,193.84,498.11,194.66z"/>
<path class="st4" d="M563.17,197.93c0,0.82-0.67,1.48-1.49,1.48c-0.82,0-1.49-0.66-1.49-1.48c0-0.82,0.67-1.49,1.49-1.49
	C562.5,196.44,563.17,197.11,563.17,197.93z"/>
<text transform="matrix(1 0 0 1 118.8745 239.1674)" class="st5 st6">0.000</text>
<text transform="matrix(1 0 0 1 118.8745 164.4066)" class="st5 st7">0.002</text>
<text transform="matrix(1 0 0 1 118.8745 89.6772)" class="st5 st6">0.004</text>
<text transform="matrix(1 0 0 1 118.8745 14.9169)" class="st5 st7">0.006</text>
<text transform="matrix(1 0 0 1 151.9512 256.4428)" class="st5 st7">0.2ms</text>
<text transform="matrix(1 0 0 1 216.957 256.4428)" class="st5 st7">0.4ms</text>
<text transform="matrix(1 0 0 1 281.9775 256.4428)" class="st5 st7">0.6ms</text>
<text transform="matrix(1 0 0 1 346.9839 256.4428)" class="st5 st7">0.8ms</text>
<text transform="matrix(1 0 0 1 412.0044 256.4428)" class="st5 st7">1.0ms</text>
<text transform="matrix(1 0 0 1 477.0249 256.4428)" class="st5 st7">1.2ms</text>
<text transform="matrix(1 0 0 1 542.0308 256.4428)" class="st5 st7">1.4ms</text>
<line class="st8" x1="168.26" y1="958.59" x2="168.26" y2="736.78"/>
<path class="st8" d="M168.26,736.78h4.23 M168.26,792.2h4.23 M168.26,847.66h4.23 M168.26,903.13h4.23 M168.26,958.59h4.23
	 M168.26,736.78h3.15 M168.26,764.5h3.15 M168.26,792.2h3.15 M168.26,819.97h3.15 M168.26,847.66h3.15 M168.26,875.43h3.15
	 M168.26,903.13h3.15 M168.26,930.89h3.15 M168.26,958.59h3.15"/>
<line class="st8" x1="168.26" y1="958.59" x2="560.84" y2="958.59"/>
<path class="st8" d="M560.84,954.26v4.33 M517.19,954.26v4.33 M473.6,954.26v4.33 M430.01,954.26v4.33 M386.35,954.26v4.33
	 M342.76,954.26v4.33 M299.1,954.26v4.33 M255.5,954.26v4.33 M211.91,954.26v4.33 M168.26,954.26v4.33"/>
<polyline class="st9" points="168.26,860.64 211.91,896.74 255.5,902.69 299.1,894.8 342.76,931.04 386.35,931.75 430.01,932.33 
	473.6,932.98 517.19,932.9 560.84,933.65 "/>
<path class="st10" d="M169.66,860.57c0,0.81-0.65,1.47-1.44,1.47c-0.79,0-1.43-0.66-1.43-1.47c0-0.81,0.64-1.47,1.43-1.47
	C169.01,859.09,169.66,859.75,169.66,860.57z"/>
<path class="st10" d="M213.25,896.66c0,0.8-0.65,1.46-1.44,1.46c-0.79,0-1.43-0.66-1.43-1.46c0-0.81,0.64-1.47,1.43-1.47
	C212.6,895.19,213.25,895.85,213.25,896.66z"/>
<path class="st10" d="M256.84,902.61c0,0.81-0.65,1.47-1.44,1.47c-0.8,0-1.44-0.66-1.44-1.47c0-0.81,0.64-1.46,1.44-1.46
	C256.2,901.15,256.84,901.8,256.84,902.61z"/>
<path class="st10" d="M300.51,894.73c0,0.8-0.65,1.46-1.44,1.46c-0.8,0-1.44-0.66-1.44-1.46c0-0.81,0.64-1.47,1.44-1.47
	C299.86,893.25,300.51,893.91,300.51,894.73z"/>
<path class="st10" d="M344.09,931.03c0,0.81-0.63,1.47-1.43,1.47c-0.8,0-1.44-0.66-1.44-1.47s0.64-1.47,1.44-1.47
	C343.46,929.55,344.09,930.21,344.09,931.03z"/>
<path class="st10" d="M387.75,931.68c0,0.8-0.65,1.46-1.43,1.46c-0.8,0-1.44-0.66-1.44-1.46c0-0.81,0.64-1.47,1.44-1.47
	C387.11,930.2,387.75,930.86,387.75,931.68z"/>
<path class="st10" d="M431.35,932.32c0,0.81-0.65,1.47-1.44,1.47c-0.79,0-1.43-0.66-1.43-1.47c0-0.81,0.64-1.46,1.43-1.46
	C430.7,930.85,431.35,931.5,431.35,932.32z"/>
<path class="st10" d="M474.94,932.89c0,0.81-0.65,1.47-1.44,1.47s-1.43-0.66-1.43-1.47c0-0.81,0.64-1.47,1.43-1.47
	S474.94,932.08,474.94,932.89z"/>
<path class="st10" d="M518.6,932.89c0,0.81-0.64,1.47-1.44,1.47c-0.79,0-1.44-0.66-1.44-1.47c0-0.81,0.65-1.47,1.44-1.47
	C517.96,931.42,518.6,932.08,518.6,932.89z"/>
<path class="st10" d="M562.2,933.62c0,0.8-0.65,1.46-1.44,1.46c-0.8,0-1.44-0.66-1.44-1.46c0-0.81,0.64-1.47,1.44-1.47
	C561.55,932.14,562.2,932.8,562.2,933.62z"/>
<polyline class="st11" points="168.26,782.21 211.91,820.18 255.5,831.38 299.1,831.31 342.76,886.91 386.35,914.54 430.01,914.61 
	473.6,914.61 517.19,914.67 560.84,914.61 "/>
<rect x="166.79" y="780.67" class="st12" width="2.87" height="2.94"/>
<rect x="210.38" y="818.71" class="st12" width="2.87" height="2.94"/>
<rect x="253.96" y="829.9" class="st12" width="2.87" height="2.94"/>
<rect x="297.63" y="829.75" class="st12" width="2.87" height="2.94"/>
<rect x="341.22" y="885.43" class="st12" width="2.87" height="2.94"/>
<rect x="384.88" y="913.06" class="st12" width="2.87" height="2.94"/>
<rect x="428.48" y="913.13" class="st12" width="2.87" height="2.94"/>
<rect x="472.07" y="913.13" class="st12" width="2.87" height="2.94"/>
<rect x="515.72" y="913.13" class="st12" width="2.87" height="2.94"/>
<rect x="559.32" y="913.13" class="st12" width="2.87" height="2.94"/>
<text transform="matrix(1 0 0 1.0238 117.2404 963.2289)" class="st5 st13">0.000</text>
<text transform="matrix(1 0 0 1.0238 117.2404 907.7748)" class="st5 st13">0.002</text>
<text transform="matrix(1 0 0 1.0238 117.2404 852.306)" class="st5 st13">0.004</text>
<text transform="matrix(1 0 0 1.0238 117.2404 796.8373)" class="st5 st13">0.006</text>
<text transform="matrix(1 0 0 1.0238 117.2404 741.369)" class="st5 st13">0.008</text>
<text transform="matrix(1 0 0 1.0238 162.423 980.3168)" class="st5 st13">2</text>
<text transform="matrix(1 0 0 1.0238 206.0636 980.3168)" class="st5 st13">4</text>
<text transform="matrix(1 0 0 1.0238 249.7042 980.3168)" class="st5 st13">6</text>
<text transform="matrix(1 0 0 1.0238 293.3175 980.3168)" class="st5 st13">8</text>
<text transform="matrix(1 0 0 1.0238 333.0626 980.3168)" class="st5 st13">10</text>
<text transform="matrix(1 0 0 1.0238 376.6749 980.3168)" class="st5 st13">12</text>
<text transform="matrix(1 0 0 1.0238 420.3156 980.3168)" class="st5 st13">14</text>
<text transform="matrix(1 0 0 1.0238 463.9572 980.3168)" class="st5 st13">16</text>
<text transform="matrix(1 0 0 1.0238 507.5695 980.3168)" class="st5 st13">18</text>
<text transform="matrix(1 0 0 1.0238 551.2101 980.3168)" class="st5 st13">20</text>
<line class="st8" x1="163.96" y1="1308.61" x2="163.96" y2="1084.43"/>
<path class="st8" d="M163.96,1084.43h4.2 M163.96,1129.28h4.2 M163.96,1174.09h4.2 M163.96,1218.91h4.2 M163.96,1263.8h4.2
	 M163.96,1308.61h4.2 M163.96,1084.43h3.13 M163.96,1106.87h3.13 M163.96,1129.28h3.13 M163.96,1151.69h3.13 M163.96,1174.09h3.13
	 M163.96,1196.5h3.13 M163.96,1218.91h3.13 M163.96,1241.39h3.13 M163.96,1263.8h3.13 M163.96,1286.2h3.13 M163.96,1308.61h3.13"/>
<line class="st8" x1="163.96" y1="1308.61" x2="553.9" y2="1308.61"/>
<path class="st8" d="M553.9,1304.24v4.38 M510.55,1304.24v4.38 M467.25,1304.24v4.38 M423.95,1304.24v4.38 M380.59,1304.24v4.38
	 M337.29,1304.24v4.38 M293.92,1304.24v4.38 M250.62,1304.24v4.38 M207.32,1304.24v4.38 M163.96,1304.24v4.38"/>
<path class="st10" d="M208.65,1213.68c0,0.82-0.64,1.49-1.43,1.49s-1.42-0.67-1.42-1.49s0.63-1.49,1.42-1.49
	S208.65,1212.86,208.65,1213.68z"/>
<path class="st10" d="M251.95,1263.35c0,0.82-0.64,1.49-1.43,1.49s-1.43-0.67-1.43-1.49s0.64-1.48,1.43-1.48
	S251.95,1262.53,251.95,1263.35z"/>
<ellipse class="st10" cx="293.89" cy="1288.01" rx="1.43" ry="1.49"/>
<path class="st10" d="M338.61,1288.08c0,0.82-0.63,1.49-1.42,1.49s-1.43-0.67-1.43-1.49s0.64-1.49,1.43-1.49
	S338.61,1287.26,338.61,1288.08z"/>
<path class="st10" d="M381.98,1288.44c0,0.82-0.64,1.49-1.42,1.49c-0.79,0-1.43-0.67-1.43-1.49s0.64-1.49,1.43-1.49
	C381.34,1286.95,381.98,1287.62,381.98,1288.44z"/>
<path class="st10" d="M425.28,1288.44c0,0.82-0.64,1.49-1.43,1.49c-0.78,0-1.42-0.67-1.42-1.49s0.64-1.49,1.42-1.49
	C424.64,1286.95,425.28,1287.62,425.28,1288.44z"/>
<path class="st10" d="M468.58,1288.3c0,0.82-0.64,1.49-1.43,1.49s-1.42-0.67-1.42-1.49s0.63-1.49,1.42-1.49
	S468.58,1287.48,468.58,1288.3z"/>
<ellipse class="st10" cx="510.52" cy="1288.23" rx="1.43" ry="1.49"/>
<path class="st10" d="M555.25,1288.37c0,0.82-0.64,1.49-1.43,1.49s-1.43-0.67-1.43-1.49s0.64-1.49,1.43-1.49
	S555.25,1287.55,555.25,1288.37z"/>
<polyline class="st11" points="163.96,1098.75 207.32,1263.94 250.62,1273.01 293.92,1272.93 337.29,1273.08 380.59,1273.01 
	423.95,1273.08 467.25,1273.08 510.55,1273.1 553.9,1273.08 "/>
<rect x="162.5" y="1097.25" class="st12" width="2.85" height="2.97"/>
<rect x="205.8" y="1262.45" class="st12" width="2.85" height="2.97"/>
<rect x="249.09" y="1271.51" class="st12" width="2.85" height="2.97"/>
<rect x="292.46" y="1271.37" class="st12" width="2.85" height="2.97"/>
<rect x="335.76" y="1271.58" class="st12" width="2.85" height="2.97"/>
<rect x="379.13" y="1271.44" class="st12" width="2.85" height="2.97"/>
<rect x="422.43" y="1271.51" class="st12" width="2.85" height="2.97"/>
<rect x="465.73" y="1271.51" class="st12" width="2.85" height="2.97"/>
<rect x="509.09" y="1271.58" class="st12" width="2.85" height="2.97"/>
<rect x="552.39" y="1271.51" class="st12" width="2.85" height="2.97"/>
<text transform="matrix(1 0 0 1.0417 113.2891 1313.3007)" class="st5 st14">0.000</text>
<text transform="matrix(1 0 0 1.0417 113.2891 1268.4491)" class="st5 st14">0.002</text>
<text transform="matrix(1 0 0 1.0417 113.2891 1223.597)" class="st5 st15">0.0</text>
<text transform="matrix(1 0 0 1.0417 132.6719 1223.597)" class="st5 st15">0</text>
<text transform="matrix(1 0 0 1.0417 140.3545 1223.597)" class="st5 st15">4</text>
<text transform="matrix(1 0 0 1.0417 113.2891 1178.7719)" class="st5 st14">0.006</text>
<text transform="matrix(1 0 0 1.0417 113.2891 1133.9208)" class="st5 st14">0.008</text>
<text transform="matrix(1 0 0 1.0417 113.2891 1089.099)" class="st5 st14">0.010</text>
<text transform="matrix(1 0 0 1.0417 158.167 1330.5956)" class="st5 st14">1</text>
<text transform="matrix(1 0 0 1.0417 201.5137 1330.5956)" class="st5 st14">2</text>
<text transform="matrix(1 0 0 1.0417 244.8604 1330.5956)" class="st5 st14">3</text>
<text transform="matrix(1 0 0 1.0417 288.1797 1330.5956)" class="st5 st14">4</text>
<text transform="matrix(1 0 0 1.0417 331.5254 1330.5956)" class="st5 st14">5</text>
<text transform="matrix(1 0 0 1.0417 374.8721 1330.5956)" class="st5 st14">6</text>
<text transform="matrix(1 0 0 1.0417 418.1914 1330.5956)" class="st5 st14">7</text>
<text transform="matrix(1 0 0 1.0417 461.5371 1330.5956)" class="st5 st14">8</text>
<text transform="matrix(1 0 0 1.0417 504.8838 1330.5956)" class="st5 st14">9</text>
<text transform="matrix(1 0 0 1.0417 544.3467 1330.5956)" class="st5 st14">10</text>
<text transform="matrix(0 -1 1 0 98.6835 149.519)" class="st5 st16">MAPE</text>
<text transform="matrix(1 0 0 1 277.9209 282.6176)" class="st5 st16">Sampling time (T</text>
<text transform="matrix(1 0 0 1 421.5156 282.6176)" class="st5 st17">sample</text>
<text transform="matrix(1 0 0 1 466.6465 282.6176)" class="st5 st16">)</text>
<text transform="matrix(1 0 0 1 512.1904 41.038)" class="st18 st19">V</text>
<text transform="matrix(1 0 0 1 522.8623 41.038)" class="st5 st20">th</text>
<text transform="matrix(1 0 0 1 188.6934 22.6161)" class="st18 st16">N</text>
<text transform="matrix(1 0 0 1 202.4116 22.6161)" class="st5 st16"> = 10</text>
<text transform="matrix(1 0 0 1 189.7573 45.4159)" class="st18 st16">T</text>
<text transform="matrix(1 0 0 1 201.3662 45.4159)" class="st5 st16"> = 12</text>
<text transform="matrix(1 0 0 1 186.4747 746.5814)" class="st5 st16">T</text>
<text transform="matrix(1 0 0 1 198.0724 746.5863)" class="st5 st17">sample</text>
<text transform="matrix(1 0 0 1 243.2032 746.5863)" class="st5 st16"> = 1.0ms</text>
<text transform="matrix(1 0 0 1 186.4689 769.3861)" class="st18 st16">N</text>
<text transform="matrix(1 0 0 1 200.1866 769.3861)" class="st5 st16"> = 10</text>
<text transform="matrix(1 0 0 1 213.2793 1093.8827)" class="st5 st16">T</text>
<text transform="matrix(1 0 0 1 224.8906 1093.8895)" class="st5 st17">sample</text>
<text transform="matrix(1 0 0 1 270.0215 1093.8895)" class="st5 st16"> = 1.0ms</text>
<text transform="matrix(1 0 0 1 213.2871 1116.6893)" class="st18 st16">N</text>
<text transform="matrix(1 0 0 1 227.0049 1116.6893)" class="st5 st16"> = 10</text>
<text transform="matrix(1 0 0 1 518.9473 62.038)" class="st18 st19">k</text>
<text transform="matrix(1 0 0 1 262.7794 1005.5863)" class="st5 st16">Iterations on training (</text>
<text transform="matrix(1 0 0 1 446.547 1005.5863)" class="st18 st16">T</text>
<text transform="matrix(1 0 0 1 458.1564 1005.5863)" class="st5 st16">)</text>
<text transform="matrix(1 0 0 1 256.6816 1353.8895)" class="st5 st16">Iterations on inference (</text>
<text transform="matrix(1 0 0 1 456.2959 1353.8895)" class="st18 st16">T</text>
<text transform="matrix(1 0 0 1 467.9043 1353.8895)" class="st5 st16">)</text>
<text transform="matrix(0 -1 1 0 96.8583 875.4867)" class="st5 st16">MAPE</text>
<text transform="matrix(0 -1 1 0 98.6837 1217.7865)" class="st5 st16">MAPE</text>
<text transform="matrix(1 0 0 1 352.3027 314.4369)" class="st21 st22">(a)</text>
<text transform="matrix(1 0 0 1 350.4767 1035.4066)" class="st21 st22">(c)</text>
<text transform="matrix(1 0 0 1 343.623 1383.7098)" class="st21 st22">(d)</text>
<line class="st1" x1="455.61" y1="37.02" x2="498.61" y2="37.02"/>
<line class="st23" x1="456.11" y1="56.52" x2="499.11" y2="56.52"/>
<path class="st4" d="M477.64,56.9c0,0.82-0.66,1.48-1.49,1.48c-0.82,0-1.48-0.66-1.48-1.48c0-0.82,0.66-1.49,1.48-1.49
	C476.98,55.41,477.64,56.08,477.64,56.9z"/>
<line class="st23" x1="455.11" y1="56.52" x2="498.11" y2="56.52"/>
<polyline class="st24" points="552.61,74.52 552.61,76.02 551.11,76.02 "/>
<line class="st25" x1="548.17" y1="76.02" x2="449.58" y2="76.02"/>
<polyline class="st24" points="448.11,76.02 446.61,76.02 446.61,74.52 "/>
<line class="st26" x1="446.61" y1="71.62" x2="446.61" y2="20.96"/>
<polyline class="st24" points="446.61,19.52 446.61,18.02 448.11,18.02 "/>
<line class="st25" x1="451.05" y1="18.02" x2="549.64" y2="18.02"/>
<polyline class="st24" points="551.11,18.02 552.61,18.02 552.61,19.52 "/>
<line class="st26" x1="552.61" y1="22.41" x2="552.61" y2="73.07"/>
<rect x="473.35" y="759.03" class="st2" width="2.97" height="2.97"/>
<path class="st4" d="M476.82,779.87c0,0.82-0.66,1.48-1.49,1.48c-0.82,0-1.48-0.66-1.48-1.48c0-0.82,0.66-1.49,1.48-1.49
	C476.16,778.38,476.82,779.05,476.82,779.87z"/>
<text transform="matrix(1 0 0 1 510.3722 764.0077)" class="st18 st19">V</text>
<text transform="matrix(1 0 0 1 521.0441 764.0077)" class="st5 st20">th</text>
<text transform="matrix(1 0 0 1 517.129 785.0077)" class="st18 st19">k</text>
<line class="st1" x1="453.79" y1="759.99" x2="496.79" y2="759.99"/>
<line class="st23" x1="454.29" y1="779.49" x2="497.29" y2="779.49"/>
<path class="st4" d="M475.82,779.87c0,0.82-0.66,1.48-1.49,1.48c-0.82,0-1.48-0.66-1.48-1.48c0-0.82,0.66-1.49,1.48-1.49
	C475.16,778.38,475.82,779.05,475.82,779.87z"/>
<line class="st23" x1="453.29" y1="779.49" x2="496.29" y2="779.49"/>
<polyline class="st24" points="550.79,797.49 550.79,798.99 549.29,798.99 "/>
<line class="st25" x1="546.35" y1="798.99" x2="447.76" y2="798.99"/>
<polyline class="st24" points="446.29,798.99 444.79,798.99 444.79,797.49 "/>
<line class="st26" x1="444.79" y1="794.59" x2="444.79" y2="743.93"/>
<polyline class="st24" points="444.79,742.49 444.79,740.99 446.29,740.99 "/>
<line class="st25" x1="449.24" y1="740.99" x2="547.82" y2="740.99"/>
<polyline class="st24" points="549.29,740.99 550.79,740.99 550.79,742.49 "/>
<line class="st26" x1="550.79" y1="745.38" x2="550.79" y2="796.04"/>
<rect x="480.44" y="396.17" class="st2" width="2.97" height="2.97"/>
<path class="st4" d="M483.91,417c0,0.82-0.66,1.48-1.49,1.48c-0.82,0-1.48-0.66-1.48-1.48c0-0.82,0.66-1.49,1.48-1.49
	C483.25,415.51,483.91,416.18,483.91,417z"/>
<text transform="matrix(1 0 0 1 517.4638 401.1422)" class="st18 st19">V</text>
<text transform="matrix(1 0 0 1 528.1357 401.1422)" class="st5 st20">th</text>
<text transform="matrix(1 0 0 1 524.2206 422.1422)" class="st18 st19">k</text>
<line class="st1" x1="460.88" y1="397.12" x2="503.88" y2="397.12"/>
<line class="st23" x1="461.38" y1="416.62" x2="504.38" y2="416.62"/>
<path class="st4" d="M482.91,417c0,0.82-0.66,1.48-1.49,1.48c-0.82,0-1.48-0.66-1.48-1.48c0-0.82,0.66-1.49,1.48-1.49
	C482.25,415.51,482.91,416.18,482.91,417z"/>
<line class="st23" x1="460.38" y1="416.62" x2="503.38" y2="416.62"/>
<polyline class="st24" points="557.88,434.62 557.88,436.12 556.38,436.12 "/>
<line class="st25" x1="553.44" y1="436.12" x2="454.86" y2="436.12"/>
<polyline class="st24" points="453.38,436.12 451.88,436.12 451.88,434.62 "/>
<line class="st26" x1="451.88" y1="431.73" x2="451.88" y2="381.07"/>
<polyline class="st24" points="451.88,379.62 451.88,378.12 453.38,378.12 "/>
<line class="st25" x1="456.33" y1="378.12" x2="554.91" y2="378.12"/>
<polyline class="st24" points="556.38,378.12 557.88,378.12 557.88,379.62 "/>
<line class="st26" x1="557.88" y1="382.52" x2="557.88" y2="433.17"/>
<polyline class="st24" points="555.11,433.15 555.11,434.65 553.61,434.65 "/>
<rect x="471.17" y="1106.34" class="st2" width="2.97" height="2.97"/>
<path class="st4" d="M474.64,1127.17c0,0.82-0.66,1.48-1.49,1.48c-0.82,0-1.48-0.66-1.48-1.48c0-0.82,0.66-1.49,1.48-1.49
	C473.98,1125.68,474.64,1126.35,474.64,1127.17z"/>
<text transform="matrix(1 0 0 1 508.1904 1111.3109)" class="st18 st19">V</text>
<text transform="matrix(1 0 0 1 518.8623 1111.3109)" class="st5 st20">th</text>
<text transform="matrix(1 0 0 1 514.9473 1132.3109)" class="st18 st19">k</text>
<line class="st1" x1="451.61" y1="1107.29" x2="494.61" y2="1107.29"/>
<line class="st23" x1="452.11" y1="1126.79" x2="495.11" y2="1126.79"/>
<path class="st4" d="M473.64,1127.17c0,0.82-0.66,1.48-1.49,1.48c-0.82,0-1.48-0.66-1.48-1.48c0-0.82,0.66-1.49,1.48-1.49
	C472.98,1125.68,473.64,1126.35,473.64,1127.17z"/>
<line class="st23" x1="451.11" y1="1126.79" x2="494.11" y2="1126.79"/>
<polyline class="st24" points="548.61,1144.79 548.61,1146.29 547.11,1146.29 "/>
<line class="st25" x1="544.17" y1="1146.29" x2="445.58" y2="1146.29"/>
<polyline class="st24" points="444.11,1146.29 442.61,1146.29 442.61,1144.79 "/>
<line class="st26" x1="442.61" y1="1141.9" x2="442.61" y2="1091.24"/>
<polyline class="st24" points="442.61,1089.79 442.61,1088.29 444.11,1088.29 "/>
<line class="st25" x1="447.05" y1="1088.29" x2="545.64" y2="1088.29"/>
<polyline class="st24" points="547.11,1088.29 548.61,1088.29 548.61,1089.79 "/>
<line class="st26" x1="548.61" y1="1092.68" x2="548.61" y2="1143.34"/>
<line class="st9" x1="510.17" y1="1288.44" x2="553.74" y2="1288.44"/>
<line class="st9" x1="467.16" y1="1288.44" x2="510.17" y2="1288.44"/>
<line class="st9" x1="423.95" y1="1288.44" x2="467.16" y2="1288.44"/>
<line class="st9" x1="380.59" y1="1288.44" x2="423.95" y2="1288.44"/>
<line class="st9" x1="337.19" y1="1288.08" x2="380.59" y2="1288.44"/>
<line class="st9" x1="293.89" y1="1288.08" x2="337.19" y2="1288.08"/>
<line class="st9" x1="250.62" y1="1263.35" x2="293.89" y2="1288.08"/>
<line class="st9" x1="207.23" y1="1213.68" x2="250.62" y2="1263.35"/>
<line class="st9" x1="201.51" y1="1084.43" x2="207.23" y2="1213.68"/>
<line class="st27" x1="164.9" y1="597.99" x2="164.9" y2="373.18"/>
<path class="st27" d="M164.9,373.18h4.01 M164.9,448.15h4.01 M164.9,523.04h4.01 M164.9,597.99h4.01 M164.9,373.18h3.01
	 M164.9,410.63h3.01 M164.9,448.15h3.01 M164.9,485.6h3.01 M164.9,523.04h3.01 M164.9,560.49h3.01 M164.9,597.99h3.01"/>
<line class="st27" x1="164.9" y1="597.99" x2="555.94" y2="597.99"/>
<path class="st27" d="M555.94,593.6v4.39 M490.77,593.6v4.39 M425.57,593.6v4.39 M360.43,593.6v4.39 M295.28,593.6v4.39
	 M230.07,593.6v4.39 M164.9,593.6v4.39"/>
<g>
	<defs>
		<rect id="SVGID_3_" x="164.85" y="373.17" width="391.47" height="225.21"/>
	</defs>
	<clipPath id="SVGID_4_">
		<use xlink:href="#SVGID_3_"  style="overflow:visible;"/>
	</clipPath>
	<polyline class="st28" points="164.9,466.39 230.07,506.18 295.28,530.68 360.43,531.11 425.57,538.59 490.77,510.83 
		555.94,532.42 	"/>
</g>
<rect x="163.49" y="464.87" class="st12" width="2.72" height="2.98"/>
<rect x="228.7" y="504.71" class="st12" width="2.72" height="2.98"/>
<rect x="293.85" y="529.22" class="st12" width="2.72" height="2.98"/>
<rect x="358.99" y="529.66" class="st12" width="2.72" height="2.98"/>
<rect x="424.2" y="537.07" class="st12" width="2.72" height="2.98"/>
<rect x="489.35" y="509.3" class="st12" width="2.72" height="2.98"/>
<rect x="554.55" y="530.97" class="st12" width="2.72" height="2.98"/>
<g>
	<defs>
		<rect id="SVGID_5_" x="164.85" y="373.17" width="391.47" height="225.21"/>
	</defs>
	<clipPath id="SVGID_6_">
		<use xlink:href="#SVGID_5_"  style="overflow:visible;"/>
	</clipPath>
	<polyline class="st29" points="164.9,431.29 230.07,555.85 295.28,562.02 360.43,554.32 425.57,564.14 490.77,558.17 
		555.94,539.85 	"/>
</g>
<path class="st10" d="M166.22,431.3c0,0.82-0.61,1.49-1.36,1.49c-0.75,0-1.36-0.67-1.36-1.49c0-0.82,0.61-1.49,1.36-1.49
	C165.61,429.81,166.22,430.48,166.22,431.3z"/>
<path class="st10" d="M231.42,555.8c0,0.82-0.61,1.49-1.36,1.49c-0.74,0-1.35-0.67-1.35-1.49c0-0.82,0.61-1.49,1.35-1.49
	C230.81,554.31,231.42,554.98,231.42,555.8z"/>
<path class="st10" d="M296.56,562.05c0,0.82-0.6,1.49-1.35,1.49c-0.75,0-1.36-0.67-1.36-1.49c0-0.82,0.61-1.48,1.36-1.48
	C295.96,560.57,296.56,561.23,296.56,562.05z"/>
<path class="st10" d="M361.71,554.27c0,0.82-0.6,1.49-1.35,1.49c-0.75,0-1.36-0.67-1.36-1.49c0-0.82,0.61-1.49,1.36-1.49
	C361.11,552.78,361.71,553.45,361.71,554.27z"/>
<path class="st10" d="M426.92,564.16c0,0.82-0.61,1.49-1.36,1.49c-0.75,0-1.36-0.67-1.36-1.49c0-0.82,0.61-1.48,1.36-1.48
	C426.31,562.68,426.92,563.33,426.92,564.16z"/>
<path class="st10" d="M492.07,558.13c0,0.82-0.61,1.48-1.36,1.48c-0.75,0-1.35-0.66-1.35-1.48c0-0.82,0.6-1.49,1.35-1.49
	C491.46,556.64,492.07,557.31,492.07,558.13z"/>
<path class="st10" d="M557.28,539.88c0,0.82-0.61,1.48-1.36,1.48c-0.75,0-1.36-0.66-1.36-1.48s0.61-1.49,1.36-1.49
	C556.67,538.38,557.28,539.05,557.28,539.88z"/>
<text transform="matrix(1 0 0 1.095 116.5677 602.6808)" class="st5 st30">0.0</text>
<text transform="matrix(1 0 0 1.095 135.0345 602.6808)" class="st5 st30">0</text>
<text transform="matrix(1 0 0 1.095 142.368 602.6808)" class="st5 st30">0</text>
<text transform="matrix(1 0 0 1.095 116.5677 527.7286)" class="st5 st30">0.0</text>
<text transform="matrix(1 0 0 1.095 135.0345 527.7286)" class="st5 st30">0</text>
<text transform="matrix(1 0 0 1.095 142.368 527.7286)" class="st5 st30">2</text>
<text transform="matrix(1 0 0 1.095 116.5677 452.7907)" class="st5 st30">0.0</text>
<text transform="matrix(1 0 0 1.095 135.0345 452.7907)" class="st5 st30">0</text>
<text transform="matrix(1 0 0 1.095 142.368 452.7907)" class="st5 st30">4</text>
<text transform="matrix(1 0 0 1.095 116.5677 377.8385)" class="st5 st30">0.0</text>
<text transform="matrix(1 0 0 1.095 135.0345 377.8385)" class="st5 st30">0</text>
<text transform="matrix(1 0 0 1.095 142.368 377.8385)" class="st5 st30">6</text>
<text transform="matrix(1 0 0 1.095 159.387 619.9933)" class="st5 st30">2</text>
<text transform="matrix(1 0 0 1.095 224.5789 619.9933)" class="st5 st30">4</text>
<text transform="matrix(1 0 0 1.095 289.7576 619.9933)" class="st5 st30">6</text>
<text transform="matrix(1 0 0 1.095 354.9363 619.9933)" class="st5 st30">8</text>
<text transform="matrix(1 0 0 1.095 416.4348 619.9933)" class="st5 st30">10</text>
<text transform="matrix(1 0 0 1.095 481.6267 619.9933)" class="st5 st30">1</text>
<text transform="matrix(1 0 0 1.095 489.0003 619.9933)" class="st5 st30">2</text>
<text transform="matrix(1 0 0 1.095 546.8054 619.9933)" class="st5 st30">1</text>
<text transform="matrix(1 0 0 1.095 554.179 619.9933)" class="st5 st30">4</text>
<text transform="matrix(1 0 0 1 180.261 384.3278)" class="st5 st16">T</text>
<text transform="matrix(1 0 0 1 191.8557 384.3214)" class="st5 st17">sample</text>
<text transform="matrix(1 0 0 1 236.9866 384.3214)" class="st5 st16"> = 1.0ms</text>
<text transform="matrix(1 0 0 1 180.2527 407.1212)" class="st18 st16">T</text>
<text transform="matrix(1 0 0 1 191.8616 407.1212)" class="st5 st16"> = 12</text>
<text transform="matrix(1 0 0 1 250.8006 643.3263)" class="st5 st16">The number of samples (</text>
<text transform="matrix(1 0 0 1 462.0047 643.3263)" class="st18 st16">N</text>
<text transform="matrix(1 0 0 1 475.7224 643.3263)" class="st5 st16">)</text>
<text transform="matrix(0 -1 1 0 100.6491 507.224)" class="st5 st16">MAPE</text>
<text transform="matrix(1 0 0 1 344.5965 675.1417)" class="st21 st22">(b)</text>
</svg>
